<svg version="1.1" xmlns="http://www.w3.org/2000/svg" viewBox="0 0 1548 515" width="1548" height="515">
  <!-- svg-source:excalidraw -->
  
  <defs>
    <style class="style-fonts">
      @font-face {
        font-family: "Virgil";
        src: url("https://excalidraw.com/Virgil.woff2");
      }
      @font-face {
        font-family: "Cascadia";
        src: url("https://excalidraw.com/Cascadia.woff2");
      }
    </style>
  </defs>
  <rect x="0" y="0" width="1548" height="515" fill="#ffffff"></rect><g stroke-linecap="round" transform="translate(159 255) rotate(0 111.00000000000003 36.5)"><path d="M18.25 0 M18.25 0 C76.9 -1.01, 135.63 0.62, 203.75 0 M18.25 0 C65.01 1.09, 111.98 1.33, 203.75 0 M203.75 0 C214.04 -0.69, 223.73 5.37, 222 18.25 M203.75 0 C216.54 1.1, 223.19 3.85, 222 18.25 M222 18.25 C220.73 25.23, 221.19 32.47, 222 54.75 M222 18.25 C221.67 26.18, 222.02 36.29, 222 54.75 M222 54.75 C222.08 65.01, 216.63 74.59, 203.75 73 M222 54.75 C221.05 68.82, 218.07 73.85, 203.75 73 M203.75 73 C138.35 71.78, 69 72.17, 18.25 73 M203.75 73 C137.48 74.43, 70.59 73.61, 18.25 73 M18.25 73 C7.29 71.53, 1 66.41, 0 54.75 M18.25 73 C3.85 73.72, 0.7 68.35, 0 54.75 M0 54.75 C-0.14 41.77, 1.15 29.93, 0 18.25 M0 54.75 C0.01 45.99, 0.12 36.35, 0 18.25 M0 18.25 C-0.7 5.68, 6.58 -0.95, 18.25 0 M0 18.25 C-0.19 6.53, 7.53 -0.07, 18.25 0" stroke="#000000" stroke-width="1" fill="none"></path></g><g stroke-linecap="round" transform="translate(10 296) rotate(0 764 104.5)"><path d="M7.86 8.16 C7.86 8.16, 7.86 8.16, 7.86 8.16 M7.86 8.16 C7.86 8.16, 7.86 8.16, 7.86 8.16 M3.66 19.09 C9.25 11.85, 12.42 6.78, 18.1 2.48 M3.66 19.09 C8.9 12.27, 14.58 6.58, 18.1 2.48 M2.75 26.24 C9.96 16.83, 14.23 9.94, 24.4 1.33 M2.75 26.24 C11.2 17.15, 18.51 8.55, 24.4 1.33 M1.83 33.39 C12.64 20.69, 22.83 11.01, 30.7 0.18 M1.83 33.39 C9.18 25.47, 14.1 19.98, 30.7 0.18 M1.57 39.79 C11.05 32.78, 16.67 21.48, 34.37 2.05 M1.57 39.79 C10.09 31.3, 18.45 21.8, 34.37 2.05 M1.96 45.43 C12.4 32.14, 23.61 17.09, 39.36 2.41 M1.96 45.43 C10.98 37.24, 18.99 27.72, 39.36 2.41 M1.7 51.83 C15.61 36.41, 28.94 19.94, 45 2.02 M1.7 51.83 C13.97 36.53, 27.85 21.8, 45 2.02 M2.1 57.47 C14.03 45.38, 24.37 31.21, 49.99 2.38 M2.1 57.47 C19.31 38.66, 35.19 19.37, 49.99 2.38 M1.83 63.87 C19.64 40.24, 41.8 19.42, 55.63 1.98 M1.83 63.87 C22.29 40.02, 43.39 15.18, 55.63 1.98 M1.57 70.27 C14.76 55.78, 30.67 39.16, 60.62 2.34 M1.57 70.27 C21.95 46.7, 42.45 21.78, 60.62 2.34 M1.97 75.91 C23.07 50.02, 42.19 26.67, 66.26 1.95 M1.97 75.91 C27.42 47.58, 51.84 18.25, 66.26 1.95 M1.71 82.31 C22.48 56.68, 44.7 35.35, 71.25 2.31 M1.71 82.31 C28.95 52.72, 53.36 21.23, 71.25 2.31 M2.1 87.95 C25.77 55.39, 54.49 25.13, 76.89 1.91 M2.1 87.95 C27.35 57.47, 53.16 27.89, 76.89 1.91 M1.84 94.35 C26.18 67.45, 44.96 42.66, 81.88 2.27 M1.84 94.35 C28.85 65.23, 54.71 35.22, 81.88 2.27 M2.23 99.99 C33.15 63.11, 60.99 29.03, 87.52 1.88 M2.23 99.99 C30.47 69.65, 57.32 40.04, 87.52 1.88 M1.97 106.39 C28.77 76.67, 56.03 46.25, 92.51 2.24 M1.97 106.39 C27.39 78.08, 53.74 47.43, 92.51 2.24 M1.71 112.79 C23.19 89.33, 44.23 63.21, 98.15 1.85 M1.71 112.79 C27.01 85.82, 48.89 58.88, 98.15 1.85 M2.1 118.43 C36.61 81.97, 68.1 43.36, 103.14 2.21 M2.1 118.43 C37.37 77.92, 71.35 37.5, 103.14 2.21 M1.84 124.83 C44.82 76.28, 87.3 28.71, 108.78 1.81 M1.84 124.83 C43.04 77.56, 82.54 32.06, 108.78 1.81 M2.24 130.47 C28.31 97.28, 59.08 66.27, 113.77 2.17 M2.24 130.47 C38.27 89.13, 76.35 46.89, 113.77 2.17 M1.98 136.87 C35.36 97.49, 74.68 55.99, 119.41 1.78 M1.98 136.87 C30.3 106.03, 57.27 75.38, 119.41 1.78 M2.37 142.51 C24.33 112.78, 50.26 85.83, 124.4 2.14 M2.37 142.51 C39.09 103.5, 73.37 63.83, 124.4 2.14 M2.11 148.91 C48.37 95.15, 93.13 43.13, 130.04 1.74 M2.11 148.91 C52 93.16, 99.75 37.55, 130.04 1.74 M1.85 155.31 C52.25 95.13, 107.26 33.61, 135.03 2.1 M1.85 155.31 C56.18 94.14, 110.24 32.26, 135.03 2.1 M2.24 160.95 C45.23 109.29, 88.81 60.83, 140.02 2.46 M2.24 160.95 C44.6 112.97, 86.24 64.78, 140.02 2.46 M1.98 167.35 C44.69 117.18, 91.4 67.37, 145.66 2.07 M1.98 167.35 C38.86 124.79, 77.8 80.89, 145.66 2.07 M2.38 172.99 C49.9 117.92, 98.67 63.23, 150.65 2.43 M2.38 172.99 C52.44 114.19, 104.56 53.79, 150.65 2.43 M2.11 179.39 C47.7 127.17, 92.3 77.23, 156.29 2.03 M2.11 179.39 C36.47 138.49, 72.82 96.69, 156.29 2.03 M1.85 185.79 C49.32 130.86, 94.7 76.77, 161.28 2.39 M1.85 185.79 C55.45 126.17, 107.16 65.4, 161.28 2.39 M3.56 189.92 C63.65 120.5, 124.62 48.66, 166.92 2 M3.56 189.92 C44.55 143.59, 85.94 95.91, 166.92 2 M4.61 194.81 C57.13 133.85, 108.2 73.95, 171.91 2.36 M4.61 194.81 C65.1 125.59, 125.54 55.93, 171.91 2.36 M6.97 198.19 C50.22 151.88, 90.85 101.89, 177.55 1.96 M6.97 198.19 C47.36 152.68, 87.68 105.43, 177.55 1.96 M9.34 201.57 C51.63 154.82, 94.52 105.32, 182.54 2.32 M9.34 201.57 C47.31 159.09, 84.02 116.07, 182.54 2.32 M12.35 204.19 C61.12 146.78, 111.79 88.7, 188.18 1.93 M12.35 204.19 C59.58 149.77, 107.46 95.5, 188.18 1.93 M16.03 206.06 C70.43 144.08, 123.15 82.98, 193.17 2.29 M16.03 206.06 C79.58 134.38, 141.56 63.6, 193.17 2.29 M19.7 207.93 C79.96 140.16, 136.5 72.67, 198.81 1.9 M19.7 207.93 C62.61 159.1, 105.78 110.01, 198.81 1.9 M24.69 208.29 C78.75 144.04, 131.76 81.7, 203.8 2.26 M24.69 208.29 C81.04 146.54, 135.3 83.16, 203.8 2.26 M29.68 208.65 C80.51 151.06, 131.52 91.53, 209.44 1.86 M29.68 208.65 C100.71 127.3, 170.22 47.38, 209.44 1.86 M35.32 208.26 C72.64 162.38, 113.11 119.05, 214.43 2.22 M35.32 208.26 C89.98 146.29, 143.56 84.67, 214.43 2.22 M40.31 208.62 C101.09 136.06, 163.69 64.77, 220.07 1.83 M40.31 208.62 C100.3 135.31, 162.29 65.16, 220.07 1.83 M45.95 208.22 C115.25 129.23, 183.83 49.46, 225.06 2.19 M45.95 208.22 C84.28 161.51, 124.19 115.89, 225.06 2.19 M50.94 208.58 C117.39 135.15, 179.55 61.9, 230.7 1.79 M50.94 208.58 C107.19 142.91, 165.58 76.8, 230.7 1.79 M56.58 208.19 C115.01 139.87, 177.13 71.61, 235.69 2.15 M56.58 208.19 C98.88 158.79, 142.02 107.54, 235.69 2.15 M61.57 208.55 C107.31 153.65, 154.56 101.58, 241.33 1.76 M61.57 208.55 C113.68 146.45, 167.79 83.85, 241.33 1.76 M67.21 208.15 C126.3 137.81, 187.06 68.7, 246.32 2.12 M67.21 208.15 C104.01 164.8, 141.87 120.65, 246.32 2.12 M72.2 208.51 C114.98 160.04, 158.87 111.16, 251.3 2.48 M72.2 208.51 C114.59 158.47, 157.39 109.49, 251.3 2.48 M77.19 208.87 C125.08 153.51, 176.1 97.37, 256.95 2.08 M77.19 208.87 C123.47 156.28, 169.72 101.81, 256.95 2.08 M82.83 208.48 C153.83 129.58, 220.19 52.34, 261.93 2.44 M82.83 208.48 C134.16 147.3, 185.53 88.4, 261.93 2.44 M87.82 208.84 C150.26 134.92, 215.59 63.38, 267.58 2.05 M87.82 208.84 C158.64 128.31, 227.73 47, 267.58 2.05 M93.46 208.44 C131.34 163.24, 173.04 117.23, 272.56 2.41 M93.46 208.44 C156.72 132.29, 222.33 58.07, 272.56 2.41 M98.45 208.8 C137.96 166.11, 172.71 123.81, 278.21 2.01 M98.45 208.8 C147.64 150.85, 198.06 92.38, 278.21 2.01 M104.09 208.41 C170.73 130.35, 239.58 53.03, 283.19 2.37 M104.09 208.41 C169.27 135.5, 234.53 60.64, 283.19 2.37 M109.08 208.77 C178.69 127.62, 248.21 45.43, 288.84 1.98 M109.08 208.77 C161.62 145.57, 215.38 83.45, 288.84 1.98 M114.72 208.38 C175.83 140.42, 234.53 71.74, 293.82 2.34 M114.72 208.38 C179.91 133.89, 244.23 60.37, 293.82 2.34 M119.71 208.74 C169.19 152.82, 217.36 100.26, 299.47 1.94 M119.71 208.74 C169.44 149.78, 222.06 91.59, 299.47 1.94 M125.35 208.34 C172.4 156.69, 216.46 105.37, 304.45 2.3 M125.35 208.34 C165.17 163.46, 202.96 119.24, 304.45 2.3 M130.34 208.7 C193 137.22, 254.51 66.16, 310.1 1.91 M130.34 208.7 C194.03 134.58, 257.65 60.57, 310.1 1.91 M135.98 208.31 C203.83 132.86, 269.74 56.9, 315.08 2.27 M135.98 208.31 C200.54 136.4, 262.44 64.89, 315.08 2.27 M140.97 208.67 C199.12 142.69, 255.23 75.69, 320.73 1.88 M140.97 208.67 C195.28 143.81, 252.36 78.9, 320.73 1.88 M146.61 208.27 C214.09 128.55, 280.08 51.82, 325.71 2.24 M146.61 208.27 C214.56 128.07, 284.16 47.32, 325.71 2.24 M151.6 208.63 C201.85 156.22, 248.79 101.82, 331.36 1.84 M151.6 208.63 C190.3 163.17, 230.47 117.09, 331.36 1.84 M157.24 208.24 C203.88 153.3, 249.51 98.61, 336.34 2.2 M157.24 208.24 C213.26 145.13, 267.77 81.64, 336.34 2.2 M162.23 208.6 C199.27 166.04, 235.44 126.17, 341.99 1.81 M162.23 208.6 C206.58 157.83, 250.75 108.22, 341.99 1.81 M167.87 208.2 C214.6 155.23, 261.67 102.38, 346.97 2.17 M167.87 208.2 C217.31 152.62, 266.5 96.02, 346.97 2.17 M172.86 208.56 C234.42 135.46, 298.79 65.51, 351.96 2.53 M172.86 208.56 C244.05 127.44, 315.26 46.1, 351.96 2.53 M177.84 208.92 C229.93 146.58, 285.46 85.64, 357.6 2.13 M177.84 208.92 C221.64 159.04, 265.9 110.01, 357.6 2.13 M183.49 208.53 C233.32 151.98, 282.4 94.48, 362.59 2.49 M183.49 208.53 C254.61 127.07, 326.4 44.85, 362.59 2.49 M188.47 208.89 C252.76 133.3, 319.76 58.32, 368.23 2.1 M188.47 208.89 C246.93 141.81, 304.89 75.07, 368.23 2.1 M194.12 208.49 C255.39 137.79, 318.22 65.34, 373.22 2.46 M194.12 208.49 C237.23 161.52, 279.05 112.38, 373.22 2.46 M199.1 208.85 C256.6 142.36, 313.11 75.61, 378.86 2.06 M199.1 208.85 C239.97 162.61, 280.17 115.87, 378.86 2.06 M204.75 208.46 C255.22 151.26, 303.87 94.25, 383.85 2.42 M204.75 208.46 C272.99 131.92, 338.36 54.99, 383.85 2.42 M209.73 208.82 C262.93 148.22, 318.5 85.81, 389.49 2.03 M209.73 208.82 C252.25 161.12, 293 113.43, 389.49 2.03 M215.38 208.42 C282.22 134.59, 345.12 58.74, 394.48 2.39 M215.38 208.42 C277.23 136.17, 339.37 64.9, 394.48 2.39 M220.36 208.78 C274.7 144.05, 330.27 80.82, 400.12 1.99 M220.36 208.78 C289.11 129.42, 357.82 50.92, 400.12 1.99 M226.01 208.39 C274.77 151.76, 322.66 95.27, 405.11 2.35 M226.01 208.39 C295.8 130.22, 365.24 50.36, 405.11 2.35 M230.99 208.75 C273.58 160.96, 315.51 112.32, 410.75 1.96 M230.99 208.75 C289.89 141.82, 348.02 74.01, 410.75 1.96 M236.64 208.36 C278.38 159.6, 322.06 107.55, 415.74 2.32 M236.64 208.36 C306.67 127.35, 375.89 48.7, 415.74 2.32 M241.62 208.72 C278.94 165.09, 313.93 121.68, 421.38 1.93 M241.62 208.72 C290.15 151.53, 339.47 93.14, 421.38 1.93 M247.27 208.32 C299.34 148.36, 350.37 90.63, 426.37 2.29 M247.27 208.32 C306.08 141.47, 364.33 73.23, 426.37 2.29 M252.25 208.68 C301.54 154.31, 350.67 97.63, 432.01 1.89 M252.25 208.68 C290.51 163.5, 330.88 118.69, 432.01 1.89 M257.9 208.29 C324.63 127.9, 394.95 47.82, 437 2.25 M257.9 208.29 C305.31 152.38, 353.32 97.15, 437 2.25 M262.88 208.65 C317.71 148.62, 373.22 85.27, 442.64 1.86 M262.88 208.65 C322.26 140.57, 381.3 72.03, 442.64 1.86 M268.53 208.25 C320.99 146.77, 374.3 88.36, 447.63 2.22 M268.53 208.25 C328.96 140.51, 387.53 72.76, 447.63 2.22 M273.51 208.61 C321.68 154.31, 370.76 96.5, 453.27 1.82 M273.51 208.61 C337.9 135.59, 400.61 63.39, 453.27 1.82 M279.16 208.22 C340.19 138.33, 402.16 68.26, 458.26 2.18 M279.16 208.22 C340.34 139.26, 401.24 70.87, 458.26 2.18 M284.14 208.58 C325.27 161.74, 364.4 117.21, 463.25 2.54 M284.14 208.58 C322 163.45, 358.78 121.42, 463.25 2.54 M289.13 208.94 C328.81 160.42, 370.01 114.35, 468.89 2.15 M289.13 208.94 C357.84 133.24, 423.75 55.15, 468.89 2.15 M294.77 208.54 C339.18 155.77, 385.89 101.61, 473.88 2.51 M294.77 208.54 C331.03 165.03, 368.34 121.29, 473.88 2.51 M299.76 208.9 C338.98 162.33, 378.48 119.82, 479.52 2.11 M299.76 208.9 C334.88 165.55, 372.57 123.56, 479.52 2.11 M305.4 208.51 C371.34 135.85, 436.09 59.47, 484.51 2.47 M305.4 208.51 C346.89 158.68, 390.28 110.35, 484.51 2.47 M310.39 208.87 C372.75 137.39, 436.22 63.63, 490.15 2.08 M310.39 208.87 C360.83 150.15, 412.05 92.31, 490.15 2.08 M316.04 208.47 C386.25 128.15, 454.34 48.81, 495.14 2.44 M316.04 208.47 C379.08 137.86, 439.8 65.57, 495.14 2.44 M321.02 208.83 C363.4 159.34, 410.59 107.9, 500.78 2.04 M321.02 208.83 C380.75 139.53, 440.81 71.09, 500.78 2.04 M326.67 208.44 C372.52 155.19, 418.5 101.42, 505.77 2.4 M326.67 208.44 C394.49 131.49, 463.04 53.65, 505.77 2.4 M331.65 208.8 C384.62 147.07, 437.25 86.31, 511.41 2.01 M331.65 208.8 C395.58 136.09, 459.47 64.3, 511.41 2.01 M337.3 208.41 C401.5 131.02, 469.03 54.29, 516.4 2.37 M337.3 208.41 C401.56 136.75, 464.77 64.26, 516.4 2.37 M342.28 208.77 C386.25 156.61, 429.07 107.33, 522.04 1.98 M342.28 208.77 C380.52 163.05, 420.18 116.97, 522.04 1.98 M347.93 208.37 C419.04 128.11, 488.91 45.03, 527.03 2.34 M347.93 208.37 C394 156.2, 439.7 104, 527.03 2.34 M352.91 208.73 C395.84 162.54, 435.72 113.33, 532.67 1.94 M352.91 208.73 C405.78 145.39, 459.99 82.4, 532.67 1.94 M358.56 208.34 C405.35 154.72, 455.08 95.75, 537.66 2.3 M358.56 208.34 C405.57 153.54, 453.69 100, 537.66 2.3 M363.54 208.7 C428.02 135.13, 490.44 62.16, 543.3 1.91 M363.54 208.7 C404.84 162.6, 445.53 115.4, 543.3 1.91 M369.19 208.3 C409.93 164.96, 448.45 119.92, 548.29 2.27 M369.19 208.3 C428.93 139.71, 489.44 71.58, 548.29 2.27 M374.17 208.66 C425.27 149.11, 478.92 90.67, 553.93 1.87 M374.17 208.66 C429.24 144.94, 487.29 78.95, 553.93 1.87 M379.82 208.27 C432.43 143.96, 488.03 80.64, 558.92 2.23 M379.82 208.27 C449.78 127.35, 519.57 46.56, 558.92 2.23 M384.8 208.63 C434.22 151.7, 482.72 94.8, 563.91 2.59 M384.8 208.63 C450.31 134.23, 514.5 59.69, 563.91 2.59 M389.79 208.99 C443.29 145.83, 494.15 85.19, 569.55 2.2 M389.79 208.99 C451.42 139.65, 511.34 69.94, 569.55 2.2 M395.43 208.59 C456.26 139.53, 514.79 71.21, 574.54 2.56 M395.43 208.59 C436.17 162.37, 478.14 113.36, 574.54 2.56 M400.42 208.95 C439.43 160.29, 481.9 113.34, 580.18 2.16 M400.42 208.95 C447.29 155.45, 495.68 99.48, 580.18 2.16 M406.06 208.56 C453.06 154.24, 499.18 101.34, 585.17 2.52 M406.06 208.56 C455.1 149.53, 505.74 91.71, 585.17 2.52 M411.05 208.92 C479.26 129.44, 547.85 51.18, 590.81 2.13 M411.05 208.92 C453.86 160.37, 496.47 110.31, 590.81 2.13 M416.69 208.52 C451.43 166.6, 490.32 123.61, 595.8 2.49 M416.69 208.52 C475.36 141.44, 533.87 73.88, 595.8 2.49 M421.68 208.88 C483.15 135.44, 545.88 61.68, 601.44 2.09 M421.68 208.88 C471.64 148.71, 522.82 88.72, 601.44 2.09 M427.32 208.49 C480.95 143.33, 535.72 82.88, 606.43 2.45 M427.32 208.49 C478.45 151.61, 528.67 93.04, 606.43 2.45 M432.31 208.85 C496.78 134.19, 561.96 59.69, 612.07 2.06 M432.31 208.85 C477.37 159.41, 521.01 109.21, 612.07 2.06 M437.95 208.46 C486.84 155.98, 532.72 99.89, 617.06 2.42 M437.95 208.46 C498.44 139.62, 557.91 71.88, 617.06 2.42 M442.94 208.82 C505.35 139.79, 567.23 69.01, 622.7 2.02 M442.94 208.82 C495.23 147.91, 548.83 85.34, 622.7 2.02 M448.58 208.42 C511.8 135.7, 577.03 60.5, 627.69 2.38 M448.58 208.42 C507.92 139.73, 567.87 70.22, 627.69 2.38 M453.57 208.78 C502.28 152.67, 552.47 95.82, 633.33 1.99 M453.57 208.78 C494.58 159.35, 535.73 113.08, 633.33 1.99 M459.21 208.39 C503.53 162.06, 545.97 111.34, 638.32 2.35 M459.21 208.39 C500.87 162.35, 542.55 113.35, 638.32 2.35 M464.2 208.75 C501.64 165.49, 537.31 122.06, 643.96 1.96 M464.2 208.75 C534.58 128.62, 604.13 46.91, 643.96 1.96 M469.84 208.35 C527.39 139.95, 583.63 76.16, 648.95 2.32 M469.84 208.35 C514.15 159.58, 557.88 110.22, 648.95 2.32 M474.83 208.71 C526.02 146.07, 579.97 88.47, 654.59 1.92 M474.83 208.71 C530.03 143.16, 588.23 78.61, 654.59 1.92 M480.47 208.32 C517.84 166.68, 553.34 124.65, 659.58 2.28 M480.47 208.32 C526.41 155.79, 573.14 102.86, 659.58 2.28 M485.46 208.68 C543.14 143.64, 598.15 77.48, 664.56 2.64 M485.46 208.68 C541.93 143.08, 597.97 78.71, 664.56 2.64 M490.45 209.04 C535.99 158.86, 578.84 106.83, 670.21 2.25 M490.45 209.04 C537.14 156.92, 583.37 104.08, 670.21 2.25 M496.09 208.64 C559.47 134.01, 624.2 58.3, 675.19 2.61 M496.09 208.64 C546.9 153.38, 595.44 97.73, 675.19 2.61 M501.08 209 C569.45 127.07, 641.03 47.55, 680.84 2.21 M501.08 209 C552.88 149.92, 605 91.34, 680.84 2.21 M506.72 208.61 C575.05 130.62, 640.27 54.04, 685.82 2.57 M506.72 208.61 C553.02 154.99, 600 102.13, 685.82 2.57 M511.71 208.97 C571.02 138.2, 631.37 70.12, 691.47 2.18 M511.71 208.97 C562.5 149.15, 614.58 90.27, 691.47 2.18 M517.35 208.57 C585.78 130.62, 651.4 51.79, 696.45 2.54 M517.35 208.57 C574.44 144.19, 631.1 78.83, 696.45 2.54 M522.34 208.93 C585.78 136.04, 650.22 61.31, 702.1 2.14 M522.34 208.93 C568.84 155.69, 614.18 102.65, 702.1 2.14 M527.98 208.54 C572.4 158.42, 619.9 106.29, 707.08 2.5 M527.98 208.54 C576.24 152.14, 623.23 97.63, 707.08 2.5 M532.97 208.9 C593.04 142.49, 650.56 72.96, 712.73 2.11 M532.97 208.9 C585.15 150.09, 635.76 91.28, 712.73 2.11 M538.61 208.5 C604.84 131.55, 667.74 57.33, 717.71 2.47 M538.61 208.5 C594.71 143.56, 650.6 78.54, 717.71 2.47 M543.6 208.86 C588.61 157.04, 634.34 103.64, 723.36 2.07 M543.6 208.86 C605.21 137.45, 666.05 67.94, 723.36 2.07 M549.24 208.47 C611.86 136.14, 674.88 64.84, 728.35 2.43 M549.24 208.47 C592.32 160.11, 635.73 112.47, 728.35 2.43 M554.23 208.83 C613.52 142.2, 671.83 74.72, 733.99 2.04 M554.23 208.83 C600.47 153.04, 648.27 97.41, 733.99 2.04 M559.87 208.44 C617.39 142.44, 674.53 77.2, 738.98 2.4 M559.87 208.44 C628.93 127.75, 699.73 46.93, 738.98 2.4 M564.86 208.8 C623.97 138.88, 682.4 72.97, 744.62 2.01 M564.86 208.8 C632.45 131.35, 700.91 51.85, 744.62 2.01 M570.5 208.4 C614.81 157.28, 657.29 107.36, 749.61 2.37 M570.5 208.4 C625.4 145.47, 681.37 80.35, 749.61 2.37 M575.49 208.76 C647.57 127.36, 715.9 46.05, 755.25 1.97 M575.49 208.76 C625.9 149.94, 676.71 90.32, 755.25 1.97 M581.13 208.37 C647.69 132.68, 714.19 55.85, 760.24 2.33 M581.13 208.37 C639.07 144.18, 694.53 80.43, 760.24 2.33 M586.12 208.73 C627.22 162.87, 665.18 116.01, 765.88 1.94 M586.12 208.73 C630.3 155.43, 675.77 103.03, 765.88 1.94 M591.76 208.33 C630.72 163.49, 672.32 114.52, 770.87 2.3 M591.76 208.33 C643.89 150.36, 694.87 91.92, 770.87 2.3 M596.75 208.69 C652.36 145.74, 709.73 82.81, 775.85 2.66 M596.75 208.69 C641.08 158.06, 685.41 108.23, 775.85 2.66 M601.74 209.05 C639.05 167.04, 677.05 122.56, 781.5 2.26 M601.74 209.05 C655.01 147.17, 709.08 84.78, 781.5 2.26 M607.38 208.66 C662.32 145.72, 716.69 81.74, 786.48 2.62 M607.38 208.66 C658.1 147.64, 709.5 89.41, 786.48 2.62 M612.37 209.02 C682.7 130.96, 751.14 52.73, 792.13 2.23 M612.37 209.02 C649.48 169.08, 684.52 127.5, 792.13 2.23 M618.01 208.62 C658.17 160.13, 701.43 113.41, 797.11 2.59 M618.01 208.62 C671.22 146.47, 725.04 84.31, 797.11 2.59 M623 208.98 C670.58 151.72, 720.08 97.01, 802.76 2.19 M623 208.98 C661.53 163.15, 701.27 118.46, 802.76 2.19 M628.64 208.59 C682.98 147.13, 738.24 86.56, 807.74 2.55 M628.64 208.59 C677.39 152.77, 726.41 97.29, 807.74 2.55 M633.63 208.95 C686.06 144.56, 741.96 81.37, 813.39 2.16 M633.63 208.95 C697.35 136.01, 761.19 62.49, 813.39 2.16 M639.27 208.55 C688.78 153.79, 735.27 97.95, 818.37 2.52 M639.27 208.55 C685.34 152.38, 732.98 98.81, 818.37 2.52 M644.26 208.91 C706.55 137.3, 769.32 64.43, 824.02 2.12 M644.26 208.91 C713.78 127.45, 783.92 47.34, 824.02 2.12 M649.9 208.52 C699.08 149.11, 749.62 91.24, 829 2.48 M649.9 208.52 C691.08 159.94, 733.46 112.46, 829 2.48 M654.89 208.88 C720.92 130.44, 786.84 54.86, 834.65 2.09 M654.89 208.88 C706.51 149.39, 759.17 89.09, 834.65 2.09 M660.53 208.49 C704.39 154.23, 753.66 101.37, 839.63 2.45 M660.53 208.49 C731.79 128.13, 800.55 48, 839.63 2.45 M665.52 208.85 C732.45 131, 801.87 54.54, 845.28 2.06 M665.52 208.85 C734.51 130.89, 804 51.27, 845.28 2.06 M671.16 208.45 C721.18 149.97, 771.83 92.31, 850.26 2.42 M671.16 208.45 C716.48 156.15, 761.14 105.01, 850.26 2.42 M676.15 208.81 C726.02 151.33, 775.67 92.53, 855.91 2.02 M676.15 208.81 C748.35 124.62, 820.75 42.65, 855.91 2.02 M681.79 208.42 C717.38 165.19, 756.28 124.56, 860.89 2.38 M681.79 208.42 C749.83 129.13, 819.23 49.18, 860.89 2.38 M686.78 208.78 C730.77 159.63, 773.52 108.37, 866.54 1.99 M686.78 208.78 C726.13 163.47, 765.87 117.73, 866.54 1.99 M692.42 208.38 C741.44 151.66, 789.18 97.17, 871.52 2.35 M692.42 208.38 C738.14 155.88, 784.95 101.84, 871.52 2.35 M697.41 208.74 C751.03 147.03, 804.87 86.62, 876.51 2.71 M697.41 208.74 C754.62 141.14, 813.63 74.81, 876.51 2.71 M702.39 209.1 C750.67 156.53, 795.93 103.44, 882.15 2.31 M702.39 209.1 C740.81 166.72, 778.16 123.94, 882.15 2.31 M708.04 208.71 C776.57 129.61, 843.69 54.86, 887.14 2.67 M708.04 208.71 C773.76 132.35, 840.42 57.05, 887.14 2.67 M713.02 209.07 C778.26 135.64, 842.42 58.4, 892.78 2.28 M713.02 209.07 C757.33 159.24, 801.58 109.69, 892.78 2.28 M718.67 208.67 C762.56 156.77, 804.38 105.59, 897.77 2.64 M718.67 208.67 C784.62 132.71, 850.46 57.93, 897.77 2.64 M723.65 209.03 C780.85 141.92, 840.04 76.03, 903.41 2.24 M723.65 209.03 C771.17 155.81, 818.05 102.02, 903.41 2.24 M729.3 208.64 C792.76 132.48, 861.34 55.02, 908.4 2.6 M729.3 208.64 C791.24 138.44, 852.54 68.9, 908.4 2.6 M734.28 209 C780.41 155.96, 824.41 107.26, 914.04 2.21 M734.28 209 C776.57 161.46, 817.42 114.43, 914.04 2.21 M739.93 208.6 C789.26 153.1, 837.73 95.21, 919.03 2.57 M739.93 208.6 C787.49 154.25, 835.95 98.29, 919.03 2.57 M744.91 208.96 C786.34 159.27, 827.51 111.35, 924.67 2.17 M744.91 208.96 C781.28 167.51, 817.86 125.13, 924.67 2.17 M750.56 208.57 C816.16 134.07, 881.32 59.24, 929.66 2.53 M750.56 208.57 C805.73 142.87, 861.16 78.09, 929.66 2.53 M755.54 208.93 C817.06 137.75, 877.52 68.63, 935.3 2.14 M755.54 208.93 C809.64 146.93, 864.31 83.28, 935.3 2.14 M761.19 208.54 C815.09 148.28, 869.85 86.07, 940.29 2.5 M761.19 208.54 C799.96 162.64, 840.15 118.91, 940.29 2.5 M766.17 208.9 C799.86 167.5, 839.18 124.16, 945.93 2.1 M766.17 208.9 C827.59 137.4, 889.3 66.93, 945.93 2.1 M771.82 208.5 C813.71 157.99, 856.33 108.36, 950.92 2.46 M771.82 208.5 C826.13 145.92, 880.28 83.96, 950.92 2.46 M776.8 208.86 C817.99 162.93, 857.97 118.8, 956.56 2.07 M776.8 208.86 C848.89 125.86, 920.86 45.14, 956.56 2.07 M782.45 208.47 C851.04 129.85, 919.54 49.95, 961.55 2.43 M782.45 208.47 C830.76 153.17, 878.24 98.11, 961.55 2.43 M787.43 208.83 C854.33 129.6, 922.23 52.9, 967.19 2.04 M787.43 208.83 C828.86 162.08, 869.95 114.03, 967.19 2.04 M793.08 208.43 C834.03 158.45, 877.3 111.05, 972.18 2.4 M793.08 208.43 C859.34 130.09, 927.73 51.56, 972.18 2.4 M798.06 208.79 C838.12 165.1, 875.74 118.24, 977.82 2 M798.06 208.79 C848.96 149.38, 901 91.55, 977.82 2 M803.71 208.4 C866.41 136.75, 928.46 67.84, 982.81 2.36 M803.71 208.4 C857.32 147.97, 910.32 85.93, 982.81 2.36 M808.69 208.76 C856.19 155.82, 899.01 102.37, 987.8 2.72 M808.69 208.76 C858.51 151.72, 907.79 94.16, 987.8 2.72 M813.68 209.12 C877.33 136.02, 939.04 67.34, 993.44 2.33 M813.68 209.12 C860.78 155.52, 907.33 101.71, 993.44 2.33 M819.32 208.72 C887.28 128.52, 956.72 48.68, 998.43 2.69 M819.32 208.72 C855.3 166.75, 891.76 123.91, 998.43 2.69 M824.31 209.08 C883.28 139.34, 944.66 70.41, 1004.07 2.29 M824.31 209.08 C874 152.6, 922.61 96.05, 1004.07 2.29 M829.95 208.69 C883.33 149.69, 931.48 92.28, 1009.06 2.65 M829.95 208.69 C890.46 137.99, 952.98 68.21, 1009.06 2.65 M834.94 209.05 C887.62 149.9, 940.9 88.27, 1014.7 2.26 M834.94 209.05 C893 142.71, 950.66 76, 1014.7 2.26 M840.58 208.65 C907.79 131.09, 976.08 52.82, 1019.69 2.62 M840.58 208.65 C882.29 159.94, 925.69 111.62, 1019.69 2.62 M845.57 209.01 C896.07 154.54, 946.13 96.55, 1025.33 2.22 M845.57 209.01 C912.15 130.24, 977.89 53.45, 1025.33 2.22 M851.21 208.62 C899.45 153.32, 950.09 97.18, 1030.32 2.58 M851.21 208.62 C910.65 141.2, 969.99 74.21, 1030.32 2.58 M856.2 208.98 C925.43 129.54, 994.99 50.12, 1035.96 2.19 M856.2 208.98 C923.72 133.4, 990.14 56.31, 1035.96 2.19 M861.84 208.58 C921.06 136.86, 986.17 65.31, 1040.95 2.55 M861.84 208.58 C919.07 142.77, 976.45 76.44, 1040.95 2.55 M866.83 208.94 C905.75 164.71, 945.04 118.82, 1046.59 2.15 M866.83 208.94 C909.81 157.52, 953.68 106.45, 1046.59 2.15 M872.47 208.55 C937.28 135.7, 1001.73 61.65, 1051.58 2.51 M872.47 208.55 C944.12 127.75, 1015.12 47.77, 1051.58 2.51 M877.46 208.91 C922.06 159.27, 964.07 109.36, 1057.22 2.12 M877.46 208.91 C928.77 151.43, 981.31 91.86, 1057.22 2.12 M883.1 208.52 C922.93 161.44, 962.91 114.38, 1062.21 2.48 M883.1 208.52 C921.96 162.76, 961.37 117.03, 1062.21 2.48 M888.09 208.88 C956.6 131.83, 1023.61 52.42, 1067.85 2.09 M888.09 208.88 C955.3 130.09, 1024.07 49.99, 1067.85 2.09 M893.73 208.48 C939.88 159.09, 984.81 106.92, 1072.84 2.45 M893.73 208.48 C955.1 136.2, 1016.52 65.61, 1072.84 2.45 M898.72 208.84 C943.72 155.8, 989.95 105.95, 1078.48 2.05 M898.72 208.84 C966.88 128.48, 1035.69 49.82, 1078.48 2.05 M904.36 208.45 C956.02 148.61, 1007.24 90.53, 1083.47 2.41 M904.36 208.45 C973.86 127.98, 1042.3 49.32, 1083.47 2.41 M909.35 208.81 C966.4 140.94, 1026.71 73.38, 1088.46 2.77 M909.35 208.81 C969.77 140.01, 1028.16 72.08, 1088.46 2.77 M914.34 209.17 C987.05 128.5, 1056.6 48.39, 1094.1 2.38 M914.34 209.17 C957.36 159.09, 999.93 111.46, 1094.1 2.38 M919.98 208.77 C985.08 133.15, 1049.38 61.18, 1099.09 2.74 M919.98 208.77 C960.75 159.9, 1001.58 111.58, 1099.09 2.74 M924.97 209.13 C988.36 132.44, 1055.82 57.66, 1104.73 2.34 M924.97 209.13 C976.08 151.15, 1027.99 92.51, 1104.73 2.34 M930.61 208.74 C997.67 133.32, 1063.84 58.18, 1109.72 2.7 M930.61 208.74 C979.35 150.95, 1030.67 92.53, 1109.72 2.7 M935.6 209.1 C1004.58 128.83, 1073.6 48, 1115.36 2.31 M935.6 209.1 C1004.96 131.33, 1072.62 54.07, 1115.36 2.31 M941.24 208.7 C983.9 158.24, 1030.41 106.21, 1120.35 2.67 M941.24 208.7 C988.18 155.43, 1032.52 104.46, 1120.35 2.67 M946.23 209.06 C983.24 164.27, 1024.59 117.53, 1125.99 2.27 M946.23 209.06 C990.47 157.39, 1036.31 105.3, 1125.99 2.27 M951.87 208.67 C1015.89 134.89, 1081.57 58.51, 1130.98 2.63 M951.87 208.67 C1002.05 149.48, 1052.67 90.54, 1130.98 2.63 M956.86 209.03 C1024.91 129.54, 1095.07 50.51, 1136.62 2.24 M956.86 209.03 C1014.75 141.3, 1073.65 74.72, 1136.62 2.24 M962.5 208.63 C1027.5 135.55, 1088.97 62.09, 1141.61 2.6 M962.5 208.63 C1016.89 144.99, 1072.63 80.86, 1141.61 2.6 M967.49 208.99 C1034.29 130.34, 1104.6 54.07, 1147.25 2.2 M967.49 208.99 C1018.42 152.61, 1068.77 95.45, 1147.25 2.2 M973.13 208.6 C1032.41 140.26, 1090.11 72.92, 1152.24 2.56 M973.13 208.6 C1015.39 161.14, 1057.5 113.38, 1152.24 2.56 M978.12 208.96 C1029.88 152.05, 1078.43 92.09, 1157.88 2.17 M978.12 208.96 C1027.51 150.23, 1077.92 91.82, 1157.88 2.17 M983.76 208.57 C1032.4 153.48, 1083 96.25, 1162.87 2.53 M983.76 208.57 C1043.37 139.8, 1102.47 71.68, 1162.87 2.53 M988.75 208.93 C1046.86 142.75, 1103.42 75.79, 1168.51 2.14 M988.75 208.93 C1058.34 128.8, 1128.05 48.32, 1168.51 2.14 M994.39 208.53 C1034.03 163.3, 1075.49 117.04, 1173.5 2.5 M994.39 208.53 C1040.32 152.21, 1087.35 99.09, 1173.5 2.5 M999.38 208.89 C1057.78 141.32, 1115.96 75.58, 1179.14 2.1 M999.38 208.89 C1056 146.06, 1111.57 83.02, 1179.14 2.1 M1005.02 208.5 C1064.93 142.35, 1123.43 72.86, 1184.13 2.46 M1005.02 208.5 C1055.87 152.31, 1104.86 95.61, 1184.13 2.46 M1010.01 208.86 C1057.86 152.39, 1107.33 96.87, 1189.11 2.82 M1010.01 208.86 C1055.55 156.74, 1102.13 103.73, 1189.11 2.82 M1015 209.22 C1079.13 134.68, 1145.83 60.26, 1194.76 2.43 M1015 209.22 C1082.21 130.3, 1150 51.42, 1194.76 2.43 M1020.64 208.82 C1078.56 142.98, 1134.94 76.06, 1199.74 2.79 M1020.64 208.82 C1078.05 144.84, 1132.45 80.74, 1199.74 2.79 M1025.63 209.18 C1062.17 167.58, 1100.6 121.84, 1205.39 2.39 M1025.63 209.18 C1090.75 133.36, 1157.29 57.98, 1205.39 2.39 M1031.27 208.79 C1066.07 167.34, 1104.5 124.13, 1210.37 2.75 M1031.27 208.79 C1071.45 162.57, 1110.95 115.62, 1210.37 2.75 M1036.26 209.15 C1075.09 164.38, 1111.38 121.16, 1216.02 2.36 M1036.26 209.15 C1074.09 164.5, 1114.23 118.06, 1216.02 2.36 M1041.9 208.75 C1083.43 163.27, 1120.97 119.15, 1221 2.72 M1041.9 208.75 C1083.32 159.63, 1127.63 109.46, 1221 2.72 M1046.89 209.11 C1112.73 132.17, 1177.92 56.54, 1226.65 2.32 M1046.89 209.11 C1095.2 151.33, 1145.71 94.31, 1226.65 2.32 M1052.53 208.72 C1096.5 158.83, 1138.77 109.81, 1231.63 2.68 M1052.53 208.72 C1102.91 151.7, 1152.6 94.92, 1231.63 2.68 M1057.52 209.08 C1121.74 132.53, 1188.18 56.41, 1237.28 2.29 M1057.52 209.08 C1107 152.58, 1155.54 94.29, 1237.28 2.29 M1063.16 208.68 C1119.33 144.52, 1177.32 79.67, 1242.26 2.65 M1063.16 208.68 C1120.21 142.11, 1176.19 76.91, 1242.26 2.65 M1068.15 209.04 C1135.45 130.91, 1203.14 57.07, 1247.91 2.25 M1068.15 209.04 C1127.57 141.26, 1186.1 74.9, 1247.91 2.25 M1073.79 208.65 C1120.25 153.67, 1167.9 100.51, 1252.89 2.61 M1073.79 208.65 C1115.63 160.16, 1158.06 110.7, 1252.89 2.61 M1078.78 209.01 C1116.86 165.29, 1152.94 124.28, 1258.54 2.22 M1078.78 209.01 C1133.5 146.53, 1188.32 84.92, 1258.54 2.22 M1084.42 208.61 C1129.56 152.99, 1178.13 99.37, 1263.52 2.58 M1084.42 208.61 C1154.45 130.13, 1222.94 50.36, 1263.52 2.58 M1089.41 208.98 C1154.78 132.77, 1222.06 58.01, 1269.17 2.18 M1089.41 208.98 C1140.13 153.85, 1189.34 96.53, 1269.17 2.18 M1095.05 208.58 C1147.78 149.19, 1197.24 91.8, 1274.15 2.54 M1095.05 208.58 C1164.32 130.62, 1234.12 50.63, 1274.15 2.54 M1100.04 208.94 C1142.87 159.96, 1186.16 113.26, 1279.8 2.15 M1100.04 208.94 C1151.17 150.39, 1201.47 91.98, 1279.8 2.15 M1105.68 208.55 C1152.92 156.45, 1197.77 101.98, 1284.78 2.51 M1105.68 208.55 C1168.99 136.37, 1232.67 64.73, 1284.78 2.51 M1110.67 208.91 C1156.54 161.43, 1199.99 109.72, 1290.43 2.12 M1110.67 208.91 C1171.35 138.06, 1234.93 65.85, 1290.43 2.12 M1116.31 208.51 C1168.06 148.33, 1220.35 88.94, 1295.41 2.48 M1116.31 208.51 C1161.85 154.41, 1209.88 100.87, 1295.41 2.48 M1121.3 208.87 C1177.66 142.49, 1234.3 78.23, 1300.4 2.84 M1121.3 208.87 C1168.72 154.92, 1216.19 100.33, 1300.4 2.84 M1126.28 209.23 C1170.18 157.29, 1217.26 103.41, 1306.04 2.44 M1126.28 209.23 C1193.14 129.59, 1261.54 51.45, 1306.04 2.44 M1131.93 208.84 C1173.59 162.1, 1218.31 111.84, 1311.03 2.8 M1131.93 208.84 C1170.52 163.26, 1207.99 120.73, 1311.03 2.8 M1136.91 209.2 C1209.12 125.96, 1278.3 44.13, 1316.67 2.41 M1136.91 209.2 C1182.72 159.46, 1225.32 108.89, 1316.67 2.41 M1142.56 208.8 C1187.73 157.35, 1233.48 102.2, 1321.66 2.77 M1142.56 208.8 C1204.49 138.17, 1266.6 66.55, 1321.66 2.77 M1147.54 209.16 C1206.32 139.75, 1269.64 67.86, 1327.3 2.37 M1147.54 209.16 C1196.74 152.72, 1245.81 95.43, 1327.3 2.37 M1153.19 208.77 C1209.84 143.26, 1269.31 75.42, 1332.29 2.73 M1153.19 208.77 C1223.03 129.85, 1293.71 49.25, 1332.29 2.73 M1158.17 209.13 C1210.05 151.42, 1260.46 91.52, 1337.94 2.34 M1158.17 209.13 C1224.85 134.7, 1290.13 60.39, 1337.94 2.34 M1163.82 208.73 C1204.99 159.66, 1247.39 110.38, 1342.92 2.7 M1163.82 208.73 C1209.26 154.93, 1257.55 101.39, 1342.92 2.7 M1168.8 209.09 C1236.79 129.89, 1303.31 52.47, 1348.57 2.3 M1168.8 209.09 C1220 148.47, 1272.18 89.05, 1348.57 2.3 M1174.45 208.7 C1221.14 156.58, 1267.64 100.46, 1353.55 2.66 M1174.45 208.7 C1218.98 156.76, 1264.4 105.15, 1353.55 2.66 M1179.44 209.06 C1246.58 131.49, 1312.66 56.26, 1359.2 2.27 M1179.44 209.06 C1234.79 147.54, 1287.65 85.22, 1359.2 2.27 M1185.08 208.66 C1246.1 135.43, 1309.47 62.75, 1364.18 2.63 M1185.08 208.66 C1224.64 162.45, 1262.41 118.86, 1364.18 2.63 M1190.07 209.02 C1258.24 133.89, 1323.96 57.52, 1369.83 2.23 M1190.07 209.02 C1249.04 141.38, 1308.53 72.93, 1369.83 2.23 M1195.71 208.63 C1252.37 142.93, 1309.4 78.22, 1374.81 2.59 M1195.71 208.63 C1234.06 164.62, 1270.92 121.07, 1374.81 2.59 M1200.7 208.99 C1241.94 160.51, 1287.68 111.56, 1380.46 2.2 M1200.7 208.99 C1270.47 129.81, 1340.21 49.62, 1380.46 2.2 M1206.34 208.6 C1253.52 154.25, 1301.47 98.72, 1385.44 2.56 M1206.34 208.6 C1251.37 158.46, 1296.16 105.97, 1385.44 2.56 M1211.33 208.96 C1255 156.42, 1300.48 107.58, 1391.09 2.17 M1211.33 208.96 C1274.61 134.74, 1339.45 60.8, 1391.09 2.17 M1216.97 208.56 C1277.32 139.27, 1339.01 66.94, 1396.07 2.53 M1216.97 208.56 C1276.92 137.19, 1337.51 67.96, 1396.07 2.53 M1221.96 208.92 C1260.47 165.72, 1298.55 124.08, 1401.06 2.89 M1221.96 208.92 C1258.42 165.48, 1295.99 124.15, 1401.06 2.89 M1226.94 209.28 C1297.3 129.11, 1370.4 46.28, 1406.7 2.49 M1226.94 209.28 C1274.36 154.5, 1320.35 101.99, 1406.7 2.49 M1232.59 208.89 C1290.03 142.02, 1349.26 73.28, 1411.69 2.85 M1232.59 208.89 C1301.28 131.77, 1369.01 54.69, 1411.69 2.85 M1237.57 209.25 C1292.97 145.84, 1351.16 78.82, 1417.33 2.46 M1237.57 209.25 C1302.94 136.4, 1366.47 62.16, 1417.33 2.46 M1243.22 208.85 C1306.2 134.6, 1372.03 62.77, 1422.32 2.82 M1243.22 208.85 C1313.07 127.89, 1383.19 48.14, 1422.32 2.82 M1248.2 209.21 C1302.65 149.56, 1356.09 86.04, 1427.96 2.42 M1248.2 209.21 C1317.27 130.21, 1385.83 52.4, 1427.96 2.42 M1253.85 208.82 C1297.47 159.48, 1341.73 107.92, 1432.95 2.78 M1253.85 208.82 C1298.46 159.83, 1343.08 109.28, 1432.95 2.78 M1258.83 209.18 C1327.81 130.65, 1395.22 51.14, 1438.59 2.39 M1258.83 209.18 C1301.25 159.23, 1342.5 112.19, 1438.59 2.39 M1264.48 208.78 C1317.71 144.94, 1372.9 83.11, 1443.58 2.75 M1264.48 208.78 C1303.41 161.7, 1343.56 117.57, 1443.58 2.75 M1269.46 209.14 C1321.99 151.67, 1376.33 89.55, 1449.22 2.35 M1269.46 209.14 C1308.72 165.77, 1346.98 121.01, 1449.22 2.35 M1275.11 208.75 C1312.74 162.49, 1351.82 118.23, 1454.21 2.71 M1275.11 208.75 C1323.65 153.46, 1372.4 99.21, 1454.21 2.71 M1280.09 209.11 C1318.73 161.72, 1361.18 116.55, 1459.85 2.32 M1280.09 209.11 C1348.92 129.61, 1418.34 48.73, 1459.85 2.32 M1285.74 208.71 C1326.19 160.93, 1369.64 110.41, 1464.84 2.68 M1285.74 208.71 C1326.13 160.9, 1365.97 115.23, 1464.84 2.68 M1290.72 209.07 C1330.18 158.38, 1374.82 111.53, 1470.48 2.28 M1290.72 209.07 C1326.05 166.24, 1361.08 124.07, 1470.48 2.28 M1296.37 208.68 C1365.56 129.05, 1435.86 48.47, 1475.47 2.64 M1296.37 208.68 C1331.81 167.71, 1368.41 126.48, 1475.47 2.64 M1301.35 209.04 C1350.27 155.15, 1399.54 97.84, 1481.11 2.25 M1301.35 209.04 C1353.12 149.4, 1404.26 91.12, 1481.11 2.25 M1307 208.65 C1356.86 153.88, 1403.37 99.85, 1486.1 2.61 M1307 208.65 C1376.67 129.35, 1445.81 48.69, 1486.1 2.61 M1311.98 209.01 C1371.52 140.65, 1430.67 69.97, 1491.74 2.21 M1311.98 209.01 C1356.35 161.29, 1399.4 111.46, 1491.74 2.21 M1317.63 208.61 C1362.88 159.52, 1404.75 108.51, 1496.73 2.58 M1317.63 208.61 C1363.65 156.83, 1408.96 104.21, 1496.73 2.58 M1322.61 208.97 C1381.3 142.56, 1437.34 76.6, 1503.69 0.67 M1322.61 208.97 C1366.57 155.82, 1412.34 103.88, 1503.69 0.67 M1328.26 208.58 C1377.79 152.87, 1425.91 96.99, 1508.02 1.79 M1328.26 208.58 C1391.57 138.14, 1452.4 67.65, 1508.02 1.79 M1333.24 208.94 C1399.48 133.79, 1463.21 59.45, 1511.69 3.66 M1333.24 208.94 C1381.13 153.28, 1428.48 98.98, 1511.69 3.66 M1338.23 209.3 C1384.02 159.75, 1427 109.23, 1515.37 5.52 M1338.23 209.3 C1388.37 150.17, 1438.66 93.38, 1515.37 5.52 M1343.87 208.9 C1397.75 149.45, 1452.58 85.2, 1519.04 7.39 M1343.87 208.9 C1386.56 157.88, 1429.21 107.82, 1519.04 7.39 M1348.86 209.26 C1393.52 153.15, 1440.79 100.92, 1522.06 10.02 M1348.86 209.26 C1410.93 137.09, 1475.05 62.46, 1522.06 10.02 M1354.5 208.87 C1393.97 162.91, 1432.45 118.19, 1524.42 13.4 M1354.5 208.87 C1402.86 152.97, 1452.72 95.89, 1524.42 13.4 M1359.49 209.23 C1423.3 132.92, 1490.11 58.11, 1526.13 17.53 M1359.49 209.23 C1424.52 135.58, 1488.91 60.34, 1526.13 17.53 M1365.13 208.83 C1417.97 151.74, 1469.64 91.22, 1527.18 22.42 M1365.13 208.83 C1411.54 152.49, 1460.65 96.87, 1527.18 22.42 M1370.12 209.19 C1410.63 164.13, 1450.17 116.46, 1529.54 25.8 M1370.12 209.19 C1400.71 172.3, 1433.59 135.3, 1529.54 25.8 M1375.76 208.8 C1436.05 141.24, 1497.46 69.55, 1529.28 32.2 M1375.76 208.8 C1427.07 147.98, 1479.51 86.89, 1529.28 32.2 M1380.75 209.16 C1414.7 168.03, 1450.01 126.9, 1529.02 38.59 M1380.75 209.16 C1430.43 151.46, 1480.27 93.74, 1529.02 38.59 M1386.39 208.76 C1440.4 147.56, 1494.33 81.29, 1529.41 44.24 M1386.39 208.76 C1427.23 163.82, 1466.28 119.81, 1529.41 44.24 M1391.38 209.12 C1437.39 156.84, 1480.5 103.12, 1529.15 50.64 M1391.38 209.12 C1420.3 174.66, 1450.28 141.3, 1529.15 50.64 M1397.02 208.73 C1432.39 168.29, 1467.69 127.76, 1529.55 56.28 M1397.02 208.73 C1439.79 159.7, 1481.06 111.15, 1529.55 56.28 M1402.01 209.09 C1434.54 167.1, 1468.99 129.34, 1529.29 62.68 M1402.01 209.09 C1445.31 162.02, 1487.72 113.33, 1529.29 62.68 M1407.65 208.69 C1445.27 166.79, 1481.21 125.89, 1529.02 69.07 M1407.65 208.69 C1444.07 166.8, 1477.94 126.82, 1529.02 69.07 M1412.64 209.06 C1457.85 158.49, 1500.33 106.73, 1529.42 74.72 M1412.64 209.06 C1441.51 174.1, 1470.07 141.36, 1529.42 74.72 M1418.28 208.66 C1444.36 180.43, 1467 154.31, 1529.16 81.11 M1418.28 208.66 C1457.66 160.55, 1499.76 114.19, 1529.16 81.11 M1423.27 209.02 C1459.13 165.08, 1496.17 124.31, 1529.55 86.76 M1423.27 209.02 C1447.16 181.9, 1470.25 155.22, 1529.55 86.76 M1428.91 208.63 C1449.65 184.46, 1472.22 161.05, 1529.29 93.16 M1428.91 208.63 C1459.52 171.49, 1490.54 135, 1529.29 93.16 M1433.9 208.99 C1454.99 182.96, 1477.75 159.49, 1529.03 99.55 M1433.9 208.99 C1468.07 167.74, 1505.29 126.73, 1529.03 99.55 M1438.89 209.35 C1468.98 172.33, 1498.42 136.73, 1529.42 105.2 M1438.89 209.35 C1463.71 180.99, 1488.78 151.88, 1529.42 105.2 M1444.53 208.95 C1465.13 184.91, 1487.99 157.93, 1529.16 111.59 M1444.53 208.95 C1471.77 178.27, 1497.89 147.45, 1529.16 111.59 M1449.52 209.31 C1478.79 175.42, 1507.99 142.09, 1529.56 117.24 M1449.52 209.31 C1479.09 174.75, 1508.63 142.16, 1529.56 117.24 M1455.16 208.92 C1472.87 185.19, 1493.21 165.27, 1529.3 123.63 M1455.16 208.92 C1479.18 178.88, 1505.56 150.31, 1529.3 123.63 M1460.15 209.28 C1483.77 183.22, 1503.43 159.66, 1529.03 130.03 M1460.15 209.28 C1479.91 185.27, 1500.69 162.04, 1529.03 130.03 M1465.79 208.88 C1491.04 179.27, 1515.38 153.48, 1529.43 135.68 M1465.79 208.88 C1490.46 179.98, 1513.74 151.36, 1529.43 135.68 M1470.78 209.24 C1486.12 189.78, 1502.91 173.76, 1529.17 142.07 M1470.78 209.24 C1489.47 187.11, 1508.78 166.52, 1529.17 142.07 M1476.42 208.85 C1496.45 186.63, 1516.26 163.22, 1529.56 147.72 M1476.42 208.85 C1492.59 189.95, 1508.91 171.2, 1529.56 147.72 M1481.41 209.21 C1496.89 190.28, 1514.43 168.98, 1529.3 154.11 M1481.41 209.21 C1497.99 192.02, 1512.04 174.23, 1529.3 154.11 M1487.05 208.81 C1502.08 189.88, 1517.95 170.16, 1529.04 160.51 M1487.05 208.81 C1496.28 197.69, 1506.66 186.76, 1529.04 160.51 M1492.04 209.17 C1499.87 199.35, 1510.54 189.51, 1529.43 166.16 M1492.04 209.17 C1503.07 196.25, 1515.04 182.36, 1529.43 166.16 M1497.03 209.53 C1507.5 197.8, 1515.76 187.25, 1529.17 172.55 M1497.03 209.53 C1506.83 197.85, 1518.31 185.84, 1529.17 172.55 M1502.67 209.14 C1508.49 203.77, 1512.97 195.08, 1529.57 178.2 M1502.67 209.14 C1509.55 199.49, 1518.67 190.7, 1529.57 178.2 M1508.97 207.99 C1514.24 198.69, 1523.41 192.96, 1528.65 185.35 M1508.97 207.99 C1515.13 202.49, 1520.82 194.81, 1528.65 185.35 M8.07 201.06 C8.07 201.06, 8.07 201.06, 8.07 201.06 M8.07 201.06 C8.07 201.06, 8.07 201.06, 8.07 201.06 M19 205.26 C13.63 200.33, 9.14 197.69, 6.17 194.11 M19 205.26 C15.43 203.18, 12.81 199.88, 6.17 194.11 M26.15 206.18 C21.1 201.73, 15.94 197.95, 0.49 183.87 M26.15 206.18 C15.95 197.43, 6.08 189.72, 0.49 183.87 M32.55 206.44 C23.81 199.77, 17.75 196.77, 0.85 178.88 M32.55 206.44 C22.93 198.18, 13.64 190.73, 0.85 178.88 M38.19 206.04 C24.02 192.18, 10.84 179.74, 0.46 173.24 M38.19 206.04 C29.64 198.16, 19.45 190.2, 0.46 173.24 M44.59 206.31 C33.42 195.35, 25.4 188.56, 0.82 168.25 M44.59 206.31 C32.57 196.15, 20.78 186.87, 0.82 168.25 M50.99 206.57 C30.28 187.79, 10.97 173.76, 0.42 162.61 M50.99 206.57 C37.29 193.08, 22.24 181.05, 0.42 162.61 M56.63 206.17 C35.76 189.33, 11.61 169.08, 0.78 157.62 M56.63 206.17 C36.72 188.47, 14.23 170.73, 0.78 157.62 M63.03 206.43 C43.84 189.33, 27.05 175.65, 0.39 151.98 M63.03 206.43 C45.43 190.39, 28.34 175.64, 0.39 151.98 M69.42 206.7 C54.14 194.12, 41.61 183.66, 0.75 146.99 M69.42 206.7 C48.2 188.91, 27.25 170.44, 0.75 146.99 M75.07 206.3 C45.74 181.43, 16.51 157.78, 0.35 141.35 M75.07 206.3 C55.53 190.2, 35.36 171.89, 0.35 141.35 M81.47 206.56 C52.51 181.11, 24.91 157.42, 0.71 136.36 M81.47 206.56 C52.23 180.59, 21.13 156.03, 0.71 136.36 M87.11 206.17 C59.81 183.07, 32.95 157.99, 0.32 130.72 M87.11 206.17 C60.24 182.91, 33.36 159.47, 0.32 130.72 M93.51 206.43 C63.58 181.9, 33.16 154.72, 0.68 125.73 M93.51 206.43 C74.01 189.83, 55.59 172.7, 0.68 125.73 M99.9 206.69 C66.16 176.18, 28.52 145.64, 0.28 120.09 M99.9 206.69 C74.57 183.29, 48.76 161.98, 0.28 120.09 M105.55 206.3 C68.88 173.66, 29.95 139.72, 0.64 115.1 M105.55 206.3 C71.32 178.34, 40.42 150.14, 0.64 115.1 M111.95 206.56 C85.33 181.23, 59.89 158.66, 0.25 109.46 M111.95 206.56 C75.93 175.78, 39.9 144.56, 0.25 109.46 M117.59 206.16 C84.16 180.59, 53.57 155.12, 0.61 104.47 M117.59 206.16 C85.64 179.55, 55.85 153.55, 0.61 104.47 M123.99 206.42 C77.4 166.11, 29.52 122.02, 0.21 98.83 M123.99 206.42 C88.73 177.73, 56.31 148.09, 0.21 98.83 M130.38 206.69 C102.55 183.8, 74.7 160.61, 0.57 93.84 M130.38 206.69 C88.69 171.13, 47.97 134.8, 0.57 93.84 M136.03 206.29 C91.95 167.67, 49.27 127.76, 0.18 88.2 M136.03 206.29 C94.73 169.65, 54.81 133.89, 0.18 88.2 M142.42 206.55 C92.17 162.83, 40.52 120.42, 0.54 83.21 M142.42 206.55 C115.1 179.95, 84.9 155.98, 0.54 83.21 M148.07 206.16 C90.93 155.75, 36.91 108.05, 0.14 77.57 M148.07 206.16 C97.12 161.53, 45.27 115.18, 0.14 77.57 M154.47 206.42 C117.72 174.28, 81.36 142.8, 0.5 72.58 M154.47 206.42 C101.88 160.97, 50.05 114.36, 0.5 72.58 M160.86 206.68 C126.54 177.49, 93.02 148.09, 0.11 66.94 M160.86 206.68 C106.03 158.16, 51.27 110.04, 0.11 66.94 M166.51 206.29 C107.32 154.63, 47.37 102.36, 0.47 61.95 M166.51 206.29 C131.29 175.8, 98.26 146.09, 0.47 61.95 M172.9 206.55 C114.33 158.04, 59.56 110.25, 0.08 56.31 M172.9 206.55 C107.02 148.67, 40.63 90.9, 0.08 56.31 M178.55 206.15 C111.4 151.67, 46.87 93.23, 0.44 51.32 M178.55 206.15 C108.93 146.35, 40.24 86.43, 0.44 51.32 M184.95 206.41 C131.12 157.52, 76.19 109.38, 0.04 45.68 M184.95 206.41 C120.36 150.53, 55.57 95.7, 0.04 45.68 M191.34 206.68 C132.76 154.13, 69.99 100.85, 0.4 40.69 M191.34 206.68 C132.82 154.93, 74.11 102.33, 0.4 40.69 M196.99 206.28 C119.98 140.44, 45.67 75.98, 0.01 35.05 M196.99 206.28 C135 153.87, 73.59 100.44, 0.01 35.05 M203.38 206.54 C157.82 165.69, 113.32 127.94, 1.12 30.72 M203.38 206.54 C140.16 149.65, 76.24 95.1, 1.12 30.72 M209.03 206.15 C142.96 149.13, 77.05 92.72, 1.48 25.73 M209.03 206.15 C146.45 152.58, 83.46 99.09, 1.48 25.73 M215.42 206.41 C155.92 153.36, 96.82 102.58, 2.6 21.4 M215.42 206.41 C131.21 134.22, 47.6 61.72, 2.6 21.4 M221.82 206.67 C159.41 153.08, 98.64 100.45, 2.96 16.41 M221.82 206.67 C149.69 142.7, 76.04 78.89, 2.96 16.41 M227.47 206.28 C179.13 163.78, 128.99 120.24, 5.58 13.4 M227.47 206.28 C177.92 163.75, 127.51 119.12, 5.58 13.4 M233.86 206.54 C154.15 137.44, 76.21 67.87, 7.45 9.72 M233.86 206.54 C186.57 166.34, 138.78 125.47, 7.45 9.72 M239.51 206.14 C192.42 164.67, 146.18 125.45, 9.32 6.05 M239.51 206.14 C151.34 130.3, 63.7 55.11, 9.32 6.05 M245.9 206.4 C182.95 153.73, 124.17 100.94, 13.45 4.34 M245.9 206.4 C176.14 144.64, 107.6 84.31, 13.45 4.34 M252.3 206.67 C177.82 143.29, 106.5 77.95, 16.83 1.98 M252.3 206.67 C183.85 146.68, 117.03 88.68, 16.83 1.98 M257.94 206.27 C202.39 160.62, 147.7 110.69, 20.21 -0.39 M257.94 206.27 C173.58 135.7, 90.5 62.9, 20.21 -0.39 M264.34 206.53 C211.09 161.58, 158.04 115.29, 25.1 -1.44 M264.34 206.53 C201.52 153.13, 137.84 98.27, 25.1 -1.44 M269.99 206.14 C187.21 134.24, 105.69 63.18, 32.25 -0.52 M269.99 206.14 C199.67 145.99, 130.02 86.32, 32.25 -0.52 M276.38 206.4 C185.41 128.74, 95.72 49.63, 38.65 -0.26 M276.38 206.4 C204.94 144.49, 134.3 81.96, 38.65 -0.26 M282.78 206.66 C196.15 132.4, 109.93 56.69, 44.29 -0.65 M282.78 206.66 C226.81 159.11, 171.7 110.08, 44.29 -0.65 M288.42 206.27 C238.65 161.37, 187.52 120.1, 50.69 -0.39 M288.42 206.27 C225.94 149.1, 162.13 94.02, 50.69 -0.39 M294.82 206.53 C222.34 146.11, 151.57 81.41, 57.09 -0.13 M294.82 206.53 C232.75 151.96, 170.39 97.3, 57.09 -0.13 M300.47 206.13 C230.88 145.52, 159.82 84.97, 62.73 -0.52 M300.47 206.13 C224.74 140.86, 149.28 75.15, 62.73 -0.52 M306.86 206.4 C240.7 149.23, 177.74 92.67, 69.13 -0.26 M306.86 206.4 C249.46 157.67, 193.24 108.71, 69.13 -0.26 M313.26 206.66 C220.43 126.88, 129.23 45.49, 74.77 -0.66 M313.26 206.66 C246.52 150.02, 181.06 91.97, 74.77 -0.66 M318.9 206.26 C261.54 158.71, 206.77 109.28, 81.17 -0.4 M318.9 206.26 C269.63 164.44, 221.46 121.77, 81.17 -0.4 M325.3 206.52 C269.7 159.69, 214.41 108.36, 87.57 -0.14 M325.3 206.52 C266.78 155.93, 207.12 104.15, 87.57 -0.14 M331.7 206.79 C273.92 156.02, 216.76 106.34, 93.21 -0.53 M331.7 206.79 C242.6 129.52, 152.3 50.76, 93.21 -0.53 M337.34 206.39 C256.9 136.52, 177.3 64.67, 99.61 -0.27 M337.34 206.39 C284.79 159.4, 233.51 113.4, 99.61 -0.27 M343.74 206.65 C294.1 162.87, 242.65 119.15, 105.25 -0.66 M343.74 206.65 C257.19 131.35, 171.87 56.86, 105.25 -0.66 M349.38 206.26 C261.59 131.84, 172.15 55.31, 111.65 -0.4 M349.38 206.26 C287.97 152.63, 227.56 100.89, 111.65 -0.4 M355.78 206.52 C280.23 142.3, 203.22 74.8, 118.05 -0.14 M355.78 206.52 C278.07 141.06, 200.53 73.22, 118.05 -0.14 M362.18 206.78 C273.99 127.92, 184.8 50.2, 123.69 -0.53 M362.18 206.78 C292.67 147.62, 226.05 88.9, 123.69 -0.53 M367.82 206.39 C313.15 158.94, 255.41 109.49, 130.09 -0.27 M367.82 206.39 C314.61 159.92, 261.98 113.53, 130.09 -0.27 M374.22 206.65 C282.02 128.74, 190.77 48.94, 135.73 -0.67 M374.22 206.65 C294.3 138.62, 214.87 69.9, 135.73 -0.67 M379.86 206.25 C310.38 146.76, 243.43 88.91, 142.13 -0.41 M379.86 206.25 C285.56 125.33, 190.97 45.2, 142.13 -0.41 M386.26 206.51 C295.26 126.73, 206.09 49.14, 148.53 -0.14 M386.26 206.51 C317.44 144.48, 246.94 83.74, 148.53 -0.14 M392.66 206.78 C325.32 152.05, 259.84 92.82, 154.17 -0.54 M392.66 206.78 C310.04 136.34, 228.16 65.94, 154.17 -0.54 M398.3 206.38 C318.33 135.5, 240.85 67.86, 160.57 -0.28 M398.3 206.38 C317.03 135.67, 233.81 63.16, 160.57 -0.28 M404.7 206.64 C337.99 149.33, 269.7 89.12, 166.21 -0.67 M404.7 206.64 C317.98 132.44, 232.94 57.33, 166.21 -0.67 M410.34 206.25 C320.2 128.56, 228.1 51.47, 172.61 -0.41 M410.34 206.25 C330.66 137.61, 249.16 66.6, 172.61 -0.41 M416.74 206.51 C359.28 157.56, 300.43 106.35, 179.01 -0.15 M416.74 206.51 C344.33 143.56, 271.72 80.3, 179.01 -0.15 M423.14 206.77 C367.9 159.36, 315.83 115.83, 184.65 -0.54 M423.14 206.77 C374.31 164.35, 325.33 121.07, 184.65 -0.54 M428.78 206.38 C338.54 128.87, 245.76 48.3, 191.05 -0.28 M428.78 206.38 C373.48 158.41, 316.68 109.4, 191.05 -0.28 M435.18 206.64 C355.65 136.29, 272.06 65.5, 196.69 -0.68 M435.18 206.64 C352.11 133.53, 268.8 60.82, 196.69 -0.68 M440.82 206.24 C394.5 165.23, 346.77 123.83, 203.09 -0.42 M440.82 206.24 C355.71 131.78, 269.34 57.01, 203.09 -0.42 M447.22 206.5 C355.53 126.44, 263.64 44.78, 209.49 -0.15 M447.22 206.5 C386.42 153.63, 324.29 99.42, 209.49 -0.15 M453.62 206.77 C395.82 155.93, 335.01 103.01, 215.13 -0.55 M453.62 206.77 C383.74 145.94, 314.61 86.07, 215.13 -0.55 M459.26 206.37 C365.22 124.59, 272.54 40.99, 221.53 -0.29 M459.26 206.37 C387.12 142.73, 316.44 81.29, 221.53 -0.29 M465.66 206.63 C381.02 132.25, 295.38 58.72, 227.17 -0.68 M465.66 206.63 C417.39 163.45, 368.54 120.32, 227.17 -0.68 M471.3 206.24 C388.59 134.47, 307.15 64.06, 233.57 -0.42 M471.3 206.24 C395.74 138.7, 320.11 74.31, 233.57 -0.42 M477.7 206.5 C419.85 156.77, 361.69 106, 239.97 -0.16 M477.7 206.5 C417.58 153.08, 356.27 101.34, 239.97 -0.16 M484.1 206.76 C435.21 161.78, 383.61 118.55, 245.61 -0.55 M484.1 206.76 C429.39 160.92, 375.96 113.44, 245.61 -0.55 M489.74 206.37 C422.07 148.96, 354.24 92.74, 252.01 -0.29 M489.74 206.37 C401.87 128.8, 313.02 51.15, 252.01 -0.29 M496.14 206.63 C417.25 138.66, 337.14 69.13, 258.4 -0.03 M496.14 206.63 C441.05 157.16, 384.45 108.72, 258.4 -0.03 M501.78 206.23 C425.49 142.65, 349.22 78.38, 264.05 -0.43 M501.78 206.23 C435.18 149.15, 368.12 90.31, 264.05 -0.43 M508.18 206.49 C455.18 160.23, 402.93 115.13, 270.45 -0.16 M508.18 206.49 C458.3 162.61, 406.78 118.3, 270.45 -0.16 M514.58 206.76 C446.68 151.42, 382.65 93.9, 276.09 -0.56 M514.58 206.76 C450.08 151.3, 387.15 96.1, 276.09 -0.56 M520.22 206.36 C434.08 134.43, 351.76 61.34, 282.49 -0.3 M520.22 206.36 C444.71 140.27, 368.29 74.75, 282.49 -0.3 M526.62 206.62 C443.33 131.94, 360.72 59.36, 288.88 -0.04 M526.62 206.62 C479.55 165.71, 432.25 123.45, 288.88 -0.04 M532.26 206.23 C439.97 125.22, 347.88 46.66, 294.53 -0.43 M532.26 206.23 C438.35 124.98, 345.93 45.32, 294.53 -0.43 M538.66 206.49 C489.63 163.88, 437.55 118.75, 300.92 -0.17 M538.66 206.49 C459.25 140.59, 380.62 72.18, 300.92 -0.17 M545.06 206.75 C460.8 132.82, 375.8 59.25, 306.57 -0.56 M545.06 206.75 C465.93 139.43, 387.12 70.91, 306.57 -0.56 M550.7 206.36 C459.91 126.41, 368.02 46.06, 312.97 -0.3 M550.7 206.36 C484.64 147.1, 418.69 89.37, 312.97 -0.3 M557.1 206.62 C497.37 156.83, 436.43 103.3, 319.36 -0.04 M557.1 206.62 C476.06 137.82, 396.81 67.99, 319.36 -0.04 M562.74 206.22 C494.82 147.46, 425.78 87.04, 325.01 -0.44 M562.74 206.22 C501.96 155.67, 442.43 102.4, 325.01 -0.44 M569.14 206.48 C511.7 157.06, 453.68 107.72, 331.4 -0.17 M569.14 206.48 C502.85 148.99, 438.32 92.19, 331.4 -0.17 M575.54 206.75 C527.01 162.9, 476.06 119.35, 337.05 -0.57 M575.54 206.75 C521.28 158.35, 464.96 109.5, 337.05 -0.57 M581.18 206.35 C515.95 150.05, 452.64 93.46, 343.45 -0.31 M581.18 206.35 C514.01 147.54, 447.02 87.58, 343.45 -0.31 M587.58 206.61 C516.57 147.66, 449.75 88.12, 349.84 -0.05 M587.58 206.61 C495.84 129.32, 404.44 49.91, 349.84 -0.05 M593.97 206.87 C530.65 152.47, 468.76 96.94, 355.49 -0.44 M593.97 206.87 C498.58 122.61, 403.06 39.62, 355.49 -0.44 M599.62 206.48 C515.74 133.79, 431.35 61.19, 361.88 -0.18 M599.62 206.48 C544.13 159.15, 487.54 110.37, 361.88 -0.18 M606.02 206.74 C538.37 149.25, 471.96 89.24, 367.53 -0.57 M606.02 206.74 C530.63 139.93, 454.04 74.13, 367.53 -0.57 M611.66 206.35 C538.15 144.57, 465.89 81.91, 373.92 -0.31 M611.66 206.35 C539.18 140.2, 464.35 75.76, 373.92 -0.31 M618.06 206.61 C567.42 163.8, 519.13 122.51, 380.32 -0.05 M618.06 206.61 C565.53 162.15, 513.67 116.5, 380.32 -0.05 M624.45 206.87 C548.72 142.83, 474.74 78.07, 385.97 -0.44 M624.45 206.87 C552.87 142.9, 480.91 79.25, 385.97 -0.44 M630.1 206.48 C569.63 152.5, 505.93 100.36, 392.36 -0.18 M630.1 206.48 C541.41 131.21, 453.22 54.28, 392.36 -0.18 M636.49 206.74 C584.78 160.77, 534.72 119.54, 398.01 -0.58 M636.49 206.74 C568.7 146.39, 500.72 87.29, 398.01 -0.58 M642.14 206.34 C586.33 155.38, 529.94 106.18, 404.4 -0.32 M642.14 206.34 C571.22 146.24, 501.68 85.56, 404.4 -0.32 M648.54 206.6 C571.53 142.17, 498.97 76.89, 410.8 -0.06 M648.54 206.6 C575.88 142.68, 502.66 79.75, 410.8 -0.06 M654.93 206.86 C577.83 142.38, 503.25 74.58, 416.44 -0.45 M654.93 206.86 C603.5 162.84, 552.84 118, 416.44 -0.45 M660.58 206.47 C610.71 164.88, 560.35 120.73, 422.84 -0.19 M660.58 206.47 C566.54 124.23, 472.62 41.86, 422.84 -0.19 M666.97 206.73 C606.15 155.65, 549.33 102.96, 428.49 -0.58 M666.97 206.73 C612.01 158.12, 558.64 111.36, 428.49 -0.58 M672.62 206.34 C587.14 134.7, 503.51 59.93, 434.88 -0.32 M672.62 206.34 C586.24 131.06, 498.37 56.32, 434.88 -0.32 M679.01 206.6 C597.64 137.63, 517.86 66.01, 441.28 -0.06 M679.01 206.6 C609.72 145.31, 541.08 84.3, 441.28 -0.06 M685.41 206.86 C622.59 149.6, 554.75 94.07, 446.92 -0.45 M685.41 206.86 C591.26 125.9, 498.59 45.02, 446.92 -0.45 M691.06 206.47 C622.51 147.12, 553.02 88.64, 453.32 -0.19 M691.06 206.47 C626.66 151.59, 562.86 96.43, 453.32 -0.19 M697.45 206.73 C611.03 129.8, 521.4 55.37, 458.97 -0.59 M697.45 206.73 C638.39 153.91, 580.33 103.89, 458.97 -0.59 M703.1 206.33 C620.18 135.04, 536.96 63.09, 465.36 -0.33 M703.1 206.33 C637.06 148.17, 571.65 90.82, 465.36 -0.33 M709.49 206.59 C634.73 142.17, 562.21 77.33, 471.76 -0.06 M709.49 206.59 C645.64 151.19, 582.57 95.84, 471.76 -0.06 M715.89 206.86 C630.37 129.96, 546.38 57.24, 477.4 -0.46 M715.89 206.86 C637.92 137.24, 558.63 67.07, 477.4 -0.46 M721.54 206.46 C663.49 156.31, 606.11 107.81, 483.8 -0.2 M721.54 206.46 C635.13 128.63, 546.67 52.22, 483.8 -0.2 M727.93 206.72 C652.09 139.76, 575.87 73.56, 489.44 -0.59 M727.93 206.72 C654.81 142.24, 581.12 76.81, 489.44 -0.59 M733.58 206.33 C643.8 130.06, 555.35 50.45, 495.84 -0.33 M733.58 206.33 C672.25 152.15, 612.55 99.28, 495.84 -0.33 M739.97 206.59 C691.29 161.2, 642.84 118.58, 502.24 -0.07 M739.97 206.59 C651.15 128.83, 561.21 50.97, 502.24 -0.07 M746.37 206.85 C697.04 164.57, 646.95 120.71, 507.88 -0.46 M746.37 206.85 C697.14 165.47, 649.31 123.41, 507.88 -0.46 M752.01 206.46 C662.77 129.79, 572.07 50.47, 514.28 -0.2 M752.01 206.46 C666.81 130.33, 579.92 55.03, 514.28 -0.2 M758.41 206.72 C686.59 147.14, 618.49 86.48, 520.68 0.06 M758.41 206.72 C694.01 153.44, 631.32 97.8, 520.68 0.06 M764.06 206.32 C683.44 134.99, 600.77 65.87, 526.32 -0.34 M764.06 206.32 C669.7 124.77, 574.53 43, 526.32 -0.34 M770.45 206.58 C708.06 153.39, 646.76 99.21, 532.72 -0.07 M770.45 206.58 C707.21 152.12, 644.13 96.9, 532.72 -0.07 M776.85 206.85 C685.33 125.84, 592.97 45.41, 538.36 -0.47 M776.85 206.85 C711.41 147.58, 645.61 91.72, 538.36 -0.47 M782.49 206.45 C731.58 161.35, 681.4 117.2, 544.76 -0.21 M782.49 206.45 C728.54 160.2, 674.12 112.26, 544.76 -0.21 M788.89 206.71 C693.91 126.75, 599.19 44.52, 551.16 0.05 M788.89 206.71 C726.46 152.61, 663.09 97.63, 551.16 0.05 M794.54 206.32 C714.44 137.97, 634.91 68.45, 556.8 -0.34 M794.54 206.32 C713.44 136.85, 635.14 66.77, 556.8 -0.34 M800.93 206.58 C707.44 125.58, 615.68 43.61, 563.2 -0.08 M800.93 206.58 C723.46 140.16, 645.59 72.66, 563.2 -0.08 M807.33 206.84 C744.55 154.7, 682.82 98.65, 568.84 -0.47 M807.33 206.84 C724.03 132.86, 641.41 61.21, 568.84 -0.47 M812.97 206.45 C721.07 129.58, 630.7 50.73, 575.24 -0.21 M812.97 206.45 C746.85 148.95, 680.89 90.86, 575.24 -0.21 M819.37 206.71 C743.92 142.89, 668.79 76.64, 581.64 0.05 M819.37 206.71 C767.56 161.78, 715.9 116.83, 581.64 0.05 M825.01 206.31 C743.54 135.53, 659.59 61.92, 587.28 -0.35 M825.01 206.31 C768.31 155.42, 711.31 105.69, 587.28 -0.35 M831.41 206.57 C762.9 147.83, 693.37 86.29, 593.68 -0.08 M831.41 206.57 C767.95 149.79, 704.71 94.35, 593.68 -0.08 M837.81 206.84 C780.86 154.06, 720.02 102.66, 599.32 -0.48 M837.81 206.84 C743.9 123.81, 651.07 42.71, 599.32 -0.48 M843.45 206.44 C785.85 156.96, 728.74 105.12, 605.72 -0.22 M843.45 206.44 C750.11 124.61, 655.51 43.46, 605.72 -0.22 M849.85 206.7 C753.35 124.65, 660.59 43.97, 612.12 0.04 M849.85 206.7 C799.56 162.02, 750.68 119.22, 612.12 0.04 M856.25 206.96 C781.56 143.12, 709.73 76.64, 617.76 -0.35 M856.25 206.96 C790.6 151.1, 724.89 94.28, 617.76 -0.35 M861.89 206.57 C792.32 147.3, 723.86 86.18, 624.16 -0.09 M861.89 206.57 C809.44 159.12, 757.14 114.27, 624.16 -0.09 M868.29 206.83 C796.86 146.71, 726.51 84.54, 629.8 -0.48 M868.29 206.83 C779.47 128.23, 690.7 51.44, 629.8 -0.48 M873.93 206.44 C779.41 124.3, 685.18 41.57, 636.2 -0.22 M873.93 206.44 C811.78 152.5, 750.81 99.12, 636.2 -0.22 M880.33 206.7 C811.4 147.27, 741.2 85.18, 642.6 0.04 M880.33 206.7 C806.05 139.33, 730.3 74.36, 642.6 0.04 M886.73 206.96 C803.27 130.67, 716.28 56.01, 648.24 -0.36 M886.73 206.96 C834.82 160.47, 783.73 115.75, 648.24 -0.36 M892.37 206.56 C838.44 160.99, 783.78 113.21, 654.64 -0.09 M892.37 206.56 C813.43 139.35, 734.35 70.34, 654.64 -0.09 M898.77 206.83 C805.33 128.43, 716.34 49.14, 660.28 -0.49 M898.77 206.83 C832.52 149.21, 768.69 93.39, 660.28 -0.49 M904.41 206.43 C822.89 138.36, 742.03 69.24, 666.68 -0.23 M904.41 206.43 C808.92 123.43, 716.4 42.7, 666.68 -0.23 M910.81 206.69 C849.09 155.26, 789.59 102.88, 673.08 0.03 M910.81 206.69 C844.14 150.09, 776.61 90.69, 673.08 0.03 M917.21 206.95 C842.73 140.88, 766.15 75.06, 678.72 -0.36 M917.21 206.95 C851.39 149.71, 784.58 91.18, 678.72 -0.36 M922.85 206.56 C845.03 138.68, 769.03 71.69, 685.12 -0.1 M922.85 206.56 C830.91 128.37, 740.03 48.63, 685.12 -0.1 M929.25 206.82 C852.28 141.29, 778.24 76.7, 690.76 -0.49 M929.25 206.82 C846.41 136.89, 766.08 64.87, 690.76 -0.49 M934.89 206.43 C857.93 138.19, 779.39 71.13, 697.16 -0.23 M934.89 206.43 C845.15 126.18, 754.85 47.16, 697.16 -0.23 M941.29 206.69 C847.85 127.99, 756.88 46.37, 703.56 0.03 M941.29 206.69 C869.89 143.81, 798.24 82.04, 703.56 0.03 M947.69 206.95 C863.22 133.5, 779.87 61.1, 709.2 -0.36 M947.69 206.95 C858.33 131.96, 770.16 55.35, 709.2 -0.36 M953.33 206.56 C895.64 157.18, 840.74 107, 715.6 -0.1 M953.33 206.56 C893.62 151.91, 832.9 98.45, 715.6 -0.1 M959.73 206.82 C896.17 152.13, 829.01 95.74, 721.24 -0.5 M959.73 206.82 C884.96 142.01, 810.11 75.38, 721.24 -0.5 M965.37 206.42 C904.1 153.59, 847.51 101.96, 727.64 -0.24 M965.37 206.42 C895.46 142.87, 824.79 81.65, 727.64 -0.24 M971.77 206.68 C892.11 139.03, 811.78 70.55, 734.04 0.02 M971.77 206.68 C908.88 151.47, 846.77 96.46, 734.04 0.02 M978.17 206.94 C914.87 152.44, 851.78 95.25, 739.68 -0.37 M978.17 206.94 C909.51 147.01, 842.09 88.37, 739.68 -0.37 M983.81 206.55 C900.44 134.4, 818.98 63.16, 746.08 -0.11 M983.81 206.55 C902.51 135.24, 819.73 64.77, 746.08 -0.11 M990.21 206.81 C934.9 160.28, 881.23 112.17, 751.72 -0.5 M990.21 206.81 C929.01 154.25, 868.34 100.82, 751.72 -0.5 M995.85 206.42 C922.73 144.74, 851.81 83.89, 758.12 -0.24 M995.85 206.42 C912.11 133.55, 827.46 59.62, 758.12 -0.24 M1002.25 206.68 C930.01 139.65, 852.97 75.93, 764.52 0.02 M1002.25 206.68 C950.07 160.29, 898.15 114.59, 764.52 0.02 M1008.65 206.94 C927.43 134.27, 844.12 63.47, 770.16 -0.37 M1008.65 206.94 C918.9 130.61, 830.34 52.75, 770.16 -0.37 M1014.29 206.55 C966 164.21, 919.41 119.92, 776.56 -0.11 M1014.29 206.55 C922.54 125.7, 832.27 48.11, 776.56 -0.11 M1020.69 206.81 C967.64 159.36, 915.8 115.54, 782.95 0.15 M1020.69 206.81 C935.78 132.54, 849.83 57.59, 782.95 0.15 M1026.33 206.41 C968.1 155.6, 911.85 105.48, 788.6 -0.25 M1026.33 206.41 C952.27 144.03, 880.85 81.09, 788.6 -0.25 M1032.73 206.67 C979.86 162.98, 925.57 116.56, 794.99 0.02 M1032.73 206.67 C946.95 132.45, 861.97 59.11, 794.99 0.02 M1039.13 206.94 C983.3 157.32, 929.81 111.92, 800.64 -0.38 M1039.13 206.94 C956.19 135.08, 873.25 61.84, 800.64 -0.38 M1044.77 206.54 C992.69 160.8, 939.81 114.98, 807.04 -0.12 M1044.77 206.54 C980 150.08, 914.19 92.9, 807.04 -0.12 M1051.17 206.8 C990.95 155.92, 931.33 101.73, 813.43 0.14 M1051.17 206.8 C995.26 157.4, 939.55 108.94, 813.43 0.14 M1056.81 206.41 C992.11 150.38, 928.38 95.5, 819.08 -0.25 M1056.81 206.41 C985.44 141.92, 911.1 78.58, 819.08 -0.25 M1063.21 206.67 C997.69 150.75, 932.54 91.4, 825.47 0.01 M1063.21 206.67 C998.11 150.73, 933.55 93.57, 825.47 0.01 M1069.61 206.93 C978.33 128.54, 888.9 49.04, 831.12 -0.38 M1069.61 206.93 C993.14 141.2, 915.1 73.82, 831.12 -0.38 M1075.25 206.54 C997.31 139.79, 921.8 71.85, 837.51 -0.12 M1075.25 206.54 C989.87 132.45, 906.17 58.99, 837.51 -0.12 M1081.65 206.8 C1000.63 136.75, 919.17 66.4, 843.91 0.14 M1081.65 206.8 C1015.54 147.76, 950.01 91.18, 843.91 0.14 M1087.29 206.4 C1015.38 143.93, 945.25 81.85, 849.56 -0.26 M1087.29 206.4 C1008.13 137.42, 929.28 68.11, 849.56 -0.26 M1093.69 206.66 C1015.83 140.4, 941.47 74.03, 855.95 0.01 M1093.69 206.66 C1002.09 126.47, 908.4 45.93, 855.95 0.01 M1100.08 206.93 C1014.77 133.31, 928.5 57.23, 861.6 -0.39 M1100.08 206.93 C1040.11 154.2, 978.29 101.28, 861.6 -0.39 M1105.73 206.53 C1051.42 156.53, 994.22 108.11, 867.99 -0.13 M1105.73 206.53 C1017.35 127.37, 929.33 50.77, 867.99 -0.13 M1112.13 206.79 C1025.17 132.48, 938.84 55.55, 874.39 0.13 M1112.13 206.79 C1032.35 135.44, 951.3 64.67, 874.39 0.13 M1118.52 207.05 C1066.86 163.85, 1019.28 120.65, 880.04 -0.26 M1118.52 207.05 C1068.23 163.22, 1018.49 121.15, 880.04 -0.26 M1124.17 206.66 C1069.65 158.39, 1016.81 111.97, 886.43 0 M1124.17 206.66 C1032.97 127.36, 942.2 47.74, 886.43 0 M1130.56 206.92 C1059.61 143.24, 985.17 79.06, 892.08 -0.39 M1130.56 206.92 C1047.15 133.53, 962.99 60.09, 892.08 -0.39 M1136.21 206.53 C1058.19 138.07, 980.18 70.85, 898.47 -0.13 M1136.21 206.53 C1047.91 130.44, 961.81 54.54, 898.47 -0.13 M1142.61 206.79 C1053.3 129.4, 961.99 50.3, 904.87 0.13 M1142.61 206.79 C1058.64 135.93, 974.96 62.89, 904.87 0.13 M1149 207.05 C1069.82 136.84, 989.74 69.14, 910.51 -0.27 M1149 207.05 C1094.83 157.04, 1038.22 108.7, 910.51 -0.27 M1154.65 206.65 C1095.63 156.8, 1037.16 104.84, 916.91 0 M1154.65 206.65 C1103.11 161.18, 1049.9 116.17, 916.91 0 M1161.04 206.92 C1074.07 128.95, 986.76 54.42, 922.56 -0.4 M1161.04 206.92 C1082.37 141.29, 1004.61 72.97, 922.56 -0.4 M1166.69 206.52 C1094.47 145.37, 1021.65 82.5, 928.95 -0.14 M1166.69 206.52 C1106.44 153.11, 1044.25 99.44, 928.95 -0.14 M1173.08 206.78 C1118.85 155.28, 1061.45 106.94, 935.35 0.12 M1173.08 206.78 C1089.77 135.11, 1006.15 62.69, 935.35 0.12 M1179.48 207.04 C1103.3 141.47, 1027.95 77.52, 940.99 -0.27 M1179.48 207.04 C1122.68 158.19, 1065.58 108.63, 940.99 -0.27 M1185.13 206.65 C1131.41 161.35, 1080.37 114.91, 947.39 -0.01 M1185.13 206.65 C1092 124.5, 998.01 43.51, 947.39 -0.01 M1191.52 206.91 C1143.25 164.5, 1091.9 120.91, 953.04 -0.4 M1191.52 206.91 C1142.03 162.15, 1091.32 118.47, 953.04 -0.4 M1197.17 206.52 C1133.65 153.27, 1070.9 99.93, 959.43 -0.14 M1197.17 206.52 C1119.24 141.76, 1042.04 74.64, 959.43 -0.14 M1203.56 206.78 C1132.59 144.4, 1061.53 80.96, 965.83 0.12 M1203.56 206.78 C1128.56 141.15, 1055.86 78.23, 965.83 0.12 M1209.96 207.04 C1120.46 128.67, 1028.49 52.72, 971.47 -0.28 M1209.96 207.04 C1119.44 126.08, 1026.69 47.13, 971.47 -0.28 M1215.61 206.64 C1151.17 152.94, 1088.72 99.01, 977.87 -0.01 M1215.61 206.64 C1134.49 139.13, 1054.52 69.19, 977.87 -0.01 M1222 206.91 C1159.21 152.92, 1098.58 98.96, 983.51 -0.41 M1222 206.91 C1174.26 164.41, 1126.55 122.79, 983.51 -0.41 M1227.65 206.51 C1141.83 134.77, 1056.99 61.52, 989.91 -0.15 M1227.65 206.51 C1134.2 125.4, 1042.61 45.88, 989.91 -0.15 M1234.04 206.77 C1168.77 151.43, 1104.75 97.4, 996.31 0.11 M1234.04 206.77 C1144.35 129.31, 1055.1 52.3, 996.31 0.11 M1240.44 207.03 C1145.3 124.61, 1050.49 40.16, 1001.95 -0.28 M1240.44 207.03 C1187.27 160.84, 1134.76 115.64, 1001.95 -0.28 M1246.08 206.64 C1185.73 155.24, 1129.38 106.03, 1008.35 -0.02 M1246.08 206.64 C1180.56 148.02, 1114.59 90.19, 1008.35 -0.02 M1252.48 206.9 C1161.35 127.5, 1068.26 46.46, 1013.99 -0.41 M1252.48 206.9 C1185.35 148.47, 1117.6 90.35, 1013.99 -0.41 M1258.13 206.51 C1189.71 146.9, 1120.98 88.46, 1020.39 -0.15 M1258.13 206.51 C1191.51 151.84, 1126.44 93.94, 1020.39 -0.15 M1264.52 206.77 C1196.66 149.78, 1126.49 88.61, 1026.79 0.11 M1264.52 206.77 C1194.73 147.3, 1124.55 86.25, 1026.79 0.11 M1270.92 207.03 C1180.9 126.66, 1088.56 47.85, 1032.43 -0.28 M1270.92 207.03 C1199.78 144.45, 1128.05 82.34, 1032.43 -0.28 M1276.56 206.64 C1220.19 158.58, 1163.69 109.48, 1038.83 -0.02 M1276.56 206.64 C1215.12 153.62, 1155.07 100.94, 1038.83 -0.02 M1282.96 206.9 C1193.34 130.41, 1105.14 51.84, 1045.23 0.24 M1282.96 206.9 C1223.35 153.71, 1161.9 101.56, 1045.23 0.24 M1288.6 206.5 C1204.03 135.15, 1121.95 59.89, 1050.87 -0.16 M1288.6 206.5 C1233.73 156.51, 1177.46 108.57, 1050.87 -0.16 M1295 206.76 C1203.93 126.97, 1113.16 47.62, 1057.27 0.1 M1295 206.76 C1234.51 153.81, 1174.67 101.16, 1057.27 0.1 M1301.4 207.02 C1226.53 143.5, 1152.31 79.85, 1062.91 -0.29 M1301.4 207.02 C1253.4 165.43, 1204.99 123.56, 1062.91 -0.29 M1307.04 206.63 C1258.1 162.92, 1209.85 118.98, 1069.31 -0.03 M1307.04 206.63 C1225.69 137.34, 1144.25 65.03, 1069.31 -0.03 M1313.44 206.89 C1224.62 131.92, 1136.46 55.04, 1075.71 0.23 M1313.44 206.89 C1221.93 128.28, 1131.11 49.66, 1075.71 0.23 M1319.08 206.5 C1245.48 143.43, 1172.37 79.18, 1081.35 -0.16 M1319.08 206.5 C1227.47 126.36, 1135.67 45.8, 1081.35 -0.16 M1325.48 206.76 C1242.04 135.38, 1158.99 63.49, 1087.75 0.1 M1325.48 206.76 C1256.45 146.88, 1188.57 86.49, 1087.75 0.1 M1331.88 207.02 C1278.42 159.8, 1225.31 112.14, 1093.39 -0.29 M1331.88 207.02 C1282.32 165.95, 1234.46 124.22, 1093.39 -0.29 M1337.52 206.63 C1274.76 154.86, 1212.58 101.76, 1099.79 -0.03 M1337.52 206.63 C1264.81 142.15, 1190.56 78.26, 1099.79 -0.03 M1343.92 206.89 C1256.03 130.13, 1169.18 53.25, 1106.19 0.23 M1343.92 206.89 C1249.11 126.62, 1156 45.5, 1106.19 0.23 M1349.56 206.49 C1284.76 152.48, 1224.75 98.96, 1111.83 -0.17 M1349.56 206.49 C1273.83 141.87, 1198.12 75.93, 1111.83 -0.17 M1355.96 206.75 C1303.69 161.52, 1251.83 116.39, 1118.23 0.1 M1355.96 206.75 C1274.43 133.78, 1192.27 62.15, 1118.23 0.1 M1362.36 207.02 C1290.22 145.56, 1217.6 82.04, 1123.87 -0.3 M1362.36 207.02 C1302.03 153.18, 1241.68 99.91, 1123.87 -0.3 M1368 206.62 C1287.52 137.71, 1209.09 69.77, 1130.27 -0.04 M1368 206.62 C1315.56 161.15, 1263.7 115.45, 1130.27 -0.04 M1374.4 206.88 C1304.73 146.71, 1234.68 86.97, 1136.67 0.22 M1374.4 206.88 C1293.84 133.7, 1211.55 62.11, 1136.67 0.22 M1380.8 207.14 C1301.87 138.47, 1223.86 70.48, 1142.31 -0.17 M1380.8 207.14 C1295.22 132.27, 1211.25 58.59, 1142.31 -0.17 M1386.44 206.75 C1311.75 143.69, 1234.43 75.39, 1148.71 0.09 M1386.44 206.75 C1317.09 147.2, 1247.84 86.78, 1148.71 0.09 M1392.84 207.01 C1320.16 145.3, 1248.07 81.87, 1154.35 -0.3 M1392.84 207.01 C1328.95 153.89, 1267.1 99.3, 1154.35 -0.3 M1398.48 206.62 C1342.15 157.65, 1284.95 105.86, 1160.75 -0.04 M1398.48 206.62 C1332.53 147.31, 1265.77 89.17, 1160.75 -0.04 M1404.88 206.88 C1349.48 158.6, 1295.84 110.8, 1167.15 0.22 M1404.88 206.88 C1347.43 159, 1290.62 109.31, 1167.15 0.22 M1411.28 207.14 C1342.89 145.8, 1274.44 88.67, 1172.79 -0.18 M1411.28 207.14 C1325.41 131.56, 1238.51 55.31, 1172.79 -0.18 M1416.92 206.74 C1332.48 135.1, 1250.4 62.51, 1179.19 0.09 M1416.92 206.74 C1332.02 132.14, 1248.09 56.96, 1179.19 0.09 M1423.32 207.01 C1362.61 155.58, 1302.35 100.68, 1184.83 -0.31 M1423.32 207.01 C1356.97 150.04, 1290.51 91.8, 1184.83 -0.31 M1428.96 206.61 C1339.54 129.93, 1253.16 54.6, 1191.23 -0.05 M1428.96 206.61 C1365.02 151.43, 1301.1 95.37, 1191.23 -0.05 M1435.36 206.87 C1356.05 139.03, 1278.24 70.05, 1197.63 0.21 M1435.36 206.87 C1375.75 155.47, 1318.31 104.85, 1197.63 0.21 M1441.76 207.13 C1375.27 147.96, 1307.62 90.77, 1203.27 -0.18 M1441.76 207.13 C1392.02 163.58, 1343.14 121.44, 1203.27 -0.18 M1447.4 206.74 C1388.85 154.56, 1331.1 104.05, 1209.67 0.08 M1447.4 206.74 C1363.67 134.73, 1281.41 61.95, 1209.67 0.08 M1453.8 207 C1373.66 138.6, 1295.38 70.68, 1215.31 -0.31 M1453.8 207 C1364.86 129.38, 1277.4 53.19, 1215.31 -0.31 M1459.44 206.61 C1381.01 140.39, 1304.63 76.24, 1221.71 -0.05 M1459.44 206.61 C1373.35 132.85, 1286.3 56.49, 1221.71 -0.05 M1465.84 206.87 C1406.34 155.41, 1345.37 99.94, 1228.11 0.21 M1465.84 206.87 C1384.57 134.72, 1302.11 63.03, 1228.11 0.21 M1472.24 207.13 C1412.51 156.1, 1352.9 103.93, 1233.75 -0.19 M1472.24 207.13 C1392.53 135.88, 1310.22 65.69, 1233.75 -0.19 M1477.88 206.73 C1415.45 154.25, 1356.95 101.16, 1240.15 0.08 M1477.88 206.73 C1404.27 143.63, 1332.67 80.49, 1240.15 0.08 M1484.28 207 C1415.38 149.1, 1348 90.18, 1245.79 -0.32 M1484.28 207 C1434.57 163.58, 1383.7 120.08, 1245.79 -0.32 M1489.92 206.6 C1396.06 122.64, 1300.88 43, 1252.19 -0.06 M1489.92 206.6 C1400.98 127.2, 1310.99 48.18, 1252.19 -0.06 M1497.07 207.52 C1433.34 151.61, 1367.98 95.31, 1258.58 0.2 M1497.07 207.52 C1407.74 131.62, 1319.44 54, 1258.58 0.2 M1502.72 207.12 C1447.44 163.17, 1392.89 116.56, 1264.23 -0.19 M1502.72 207.12 C1433.57 144.56, 1362.74 84.2, 1264.23 -0.19 M1507.6 206.07 C1460.64 163.23, 1410.85 121.77, 1270.63 0.07 M1507.6 206.07 C1432.88 141.17, 1359.78 78.37, 1270.63 0.07 M1511.74 204.37 C1426.2 130.46, 1342.76 57.48, 1276.27 -0.32 M1511.74 204.37 C1431.69 133.38, 1350.75 62.23, 1276.27 -0.32 M1515.87 202.66 C1455.39 149.17, 1396.26 97.91, 1282.67 -0.06 M1515.87 202.66 C1425.61 124.42, 1334.72 45.44, 1282.67 -0.06 M1520.01 200.95 C1455.03 144.44, 1390.79 87.92, 1289.06 0.2 M1520.01 200.95 C1471.63 160.11, 1422.85 118.41, 1289.06 0.2 M1521.88 197.28 C1434.97 119.49, 1345.46 43.42, 1294.71 -0.2 M1521.88 197.28 C1464.76 150.16, 1409.17 100.65, 1294.71 -0.2 M1524.5 194.26 C1447.81 125.67, 1368.35 57.3, 1301.11 0.07 M1524.5 194.26 C1449.56 127.1, 1374.44 63.16, 1301.11 0.07 M1526.37 190.58 C1457.44 132.07, 1388.93 73.52, 1307.5 0.33 M1526.37 190.58 C1482.46 151.73, 1437.82 112.72, 1307.5 0.33 M1527.48 186.25 C1485.01 149.06, 1440.71 109.07, 1313.15 -0.07 M1527.48 186.25 C1449.51 118.39, 1372.01 51.23, 1313.15 -0.07 M1529.35 182.58 C1462.65 122.35, 1395.57 63.19, 1319.54 0.19 M1529.35 182.58 C1476.67 137.42, 1423.37 91.63, 1319.54 0.19 M1528.96 176.94 C1460.72 115.93, 1391.01 57.36, 1325.19 -0.2 M1528.96 176.94 C1466.77 123.36, 1405.71 71.41, 1325.19 -0.2 M1529.32 171.95 C1473.33 125.27, 1415.46 75.88, 1331.58 0.06 M1529.32 171.95 C1476.26 125.28, 1423.17 80.38, 1331.58 0.06 M1528.92 166.31 C1465.2 108.92, 1400.41 51.85, 1337.98 0.32 M1528.92 166.31 C1463.88 112.1, 1400.99 56.54, 1337.98 0.32 M1529.28 161.32 C1486.57 123.94, 1444.54 84.16, 1343.63 -0.07 M1529.28 161.32 C1492.76 127.38, 1453.44 94.96, 1343.63 -0.07 M1528.89 155.68 C1485.76 120.76, 1443.01 83.8, 1350.02 0.19 M1528.89 155.68 C1486.87 120.1, 1446.26 84.39, 1350.02 0.19 M1529.25 150.69 C1465.56 94.55, 1400.17 38.25, 1355.67 -0.2 M1529.25 150.69 C1477.14 105.18, 1427.2 61.25, 1355.67 -0.2 M1529.61 145.7 C1468.71 91.85, 1408.12 37.98, 1362.06 0.06 M1529.61 145.7 C1474.7 98.04, 1418.35 49.55, 1362.06 0.06 M1529.22 140.06 C1483.92 98.73, 1439.83 59.39, 1368.46 0.32 M1529.22 140.06 C1489.93 106.45, 1450.15 72.2, 1368.46 0.32 M1529.58 135.07 C1481.07 91.82, 1436.17 51.84, 1374.11 -0.08 M1529.58 135.07 C1472.27 85.39, 1414.39 36.42, 1374.11 -0.08 M1529.18 129.43 C1479.56 87.09, 1434.16 43.87, 1380.5 0.18 M1529.18 129.43 C1494.56 98.86, 1459.15 66.46, 1380.5 0.18 M1529.54 124.44 C1482.1 82.19, 1438.14 41.12, 1386.15 -0.21 M1529.54 124.44 C1496.06 96.47, 1461.01 65.35, 1386.15 -0.21 M1529.15 118.8 C1499.65 96.73, 1470.52 70.61, 1392.54 0.05 M1529.15 118.8 C1483.3 78.25, 1437.06 37.28, 1392.54 0.05 M1529.51 113.81 C1481.04 74.32, 1435.47 32.73, 1398.94 0.31 M1529.51 113.81 C1502.64 89.04, 1473.8 63.47, 1398.94 0.31 M1529.11 108.17 C1499.71 83.21, 1466.85 57.53, 1404.58 -0.08 M1529.11 108.17 C1490.42 74.31, 1454.1 41.87, 1404.58 -0.08 M1529.47 103.18 C1505.07 81.99, 1478.06 60.58, 1410.98 0.18 M1529.47 103.18 C1488.23 65.42, 1446.45 30.35, 1410.98 0.18 M1529.08 97.54 C1498.36 69.76, 1464.4 42.38, 1416.63 -0.21 M1529.08 97.54 C1489.83 62.63, 1453.04 30.83, 1416.63 -0.21 M1529.44 92.55 C1493.22 57.28, 1453.17 25.02, 1423.02 0.05 M1529.44 92.55 C1497.92 64.17, 1464.61 34.44, 1423.02 0.05 M1529.04 86.91 C1489.89 52.33, 1454.67 21.33, 1429.42 0.31 M1529.04 86.91 C1492.94 56.72, 1458.39 27.3, 1429.42 0.31 M1529.4 81.92 C1496.24 54.91, 1464.24 27.05, 1435.06 -0.09 M1529.4 81.92 C1503.65 59.03, 1477.49 37.53, 1435.06 -0.09 M1529.01 76.28 C1499.48 51.14, 1471.23 27.21, 1441.46 0.18 M1529.01 76.28 C1501.72 53.61, 1473.69 30, 1441.46 0.18 M1529.37 71.29 C1512.89 54.35, 1496.11 41.77, 1447.1 -0.22 M1529.37 71.29 C1508.51 54.34, 1488.96 37.8, 1447.1 -0.22 M1528.97 65.65 C1506.08 45.31, 1482.83 21.95, 1453.5 0.04 M1528.97 65.65 C1508.71 46.09, 1487.8 29.02, 1453.5 0.04 M1529.33 60.66 C1512.96 48.01, 1496.82 31.7, 1459.9 0.3 M1529.33 60.66 C1501.97 36.53, 1475.66 13.56, 1459.9 0.3 M1528.94 55.02 C1511.24 37.27, 1489.97 20.88, 1465.54 -0.09 M1528.94 55.02 C1504.09 34.24, 1479.74 12.55, 1465.54 -0.09 M1529.3 50.03 C1507.46 29.47, 1486.48 11.06, 1471.94 0.17 M1529.3 50.03 C1514.16 37.89, 1499.28 23.66, 1471.94 0.17 M1528.9 44.39 C1516.39 34.98, 1506.24 22.22, 1477.58 -0.22 M1528.9 44.39 C1515.03 32.9, 1503.7 21.43, 1477.58 -0.22 M1529.26 39.4 C1515.93 27.12, 1505.27 14.69, 1483.98 0.04 M1529.26 39.4 C1511.39 23.4, 1495.03 9.63, 1483.98 0.04 M1529.62 34.41 C1513.19 20.22, 1499.31 8.21, 1490.38 0.3 M1529.62 34.41 C1516.32 22.88, 1501.34 9.21, 1490.38 0.3 M1529.23 28.77 C1520.7 20.31, 1510.2 11.66, 1496.02 -0.1 M1529.23 28.77 C1520.36 21.8, 1510.69 13.12, 1496.02 -0.1 M1528.84 23.13 C1523.26 19.62, 1517.91 12.2, 1502.42 0.17 M1528.84 23.13 C1521.24 16.48, 1514.68 10.45, 1502.42 0.17 M1526.18 15.52 C1522.71 10.28, 1514.46 7.36, 1510.33 1.74 M1526.18 15.52 C1520.94 9.9, 1513.53 5.86, 1510.33 1.74" stroke="#fa5252" stroke-width="0.5" fill="none"></path><path d="M32 0 M32 0 C577.13 2.91, 1123.93 3.07, 1496 0 M32 0 C397.38 6.06, 762.72 6.16, 1496 0 M1496 0 C1516.78 -1.97, 1528.11 9.6, 1528 32 M1496 0 C1518.9 1.38, 1528.91 12.7, 1528 32 M1528 32 C1527.65 88.45, 1525.34 143.59, 1528 177 M1528 32 C1528.16 66.82, 1528.72 102.47, 1528 177 M1528 177 C1527.63 199.62, 1517.95 208.23, 1496 209 M1528 177 C1527.63 198.89, 1516.34 208.47, 1496 209 M1496 209 C1099.83 209.99, 703.72 209.61, 32 209 M1496 209 C1187.02 204.47, 878.22 204.38, 32 209 M32 209 C9.24 207.82, -1.31 200.21, 0 177 M32 209 C9.65 210.01, -1.12 200.38, 0 177 M0 177 C1.07 132.2, 0.53 88.01, 0 32 M0 177 C0.75 143.78, 2.08 112.75, 0 32 M0 32 C0.86 11.56, 8.68 1.89, 32 0 M0 32 C-0.21 9.25, 8.88 -1.36, 32 0" stroke="#000000" stroke-width="1" fill="none"></path></g><g stroke-linecap="round" transform="translate(383 256.5) rotate(0 111 36.5)"><path d="M18.25 0 M18.25 0 C75.21 2.52, 132.27 0.42, 203.75 0 M18.25 0 C84.84 0.72, 150.17 1.16, 203.75 0 M203.75 0 C214.84 -0.88, 223.03 7.55, 222 18.25 M203.75 0 C217.59 0.16, 223.78 4.67, 222 18.25 M222 18.25 C223.53 24.85, 220.9 32.85, 222 54.75 M222 18.25 C221.07 30.37, 222.49 44.73, 222 54.75 M222 54.75 C220.52 65.77, 215.8 73.16, 203.75 73 M222 54.75 C221.59 64.75, 216.18 75.28, 203.75 73 M203.75 73 C135.99 74.95, 64.94 75.29, 18.25 73 M203.75 73 C165.68 71.4, 125.82 72.42, 18.25 73 M18.25 73 C6.07 72.35, 0.72 68.79, 0 54.75 M18.25 73 C7.39 72.72, -1.61 66.91, 0 54.75 M0 54.75 C-1.72 42.11, 0.02 28.57, 0 18.25 M0 54.75 C0.06 40.8, -0.16 25.1, 0 18.25 M0 18.25 C-0.39 6.61, 6.16 -0.51, 18.25 0 M0 18.25 C-0.78 6.38, 5.54 -0.35, 18.25 0" stroke="#000000" stroke-width="1" fill="none"></path></g><g stroke-linecap="round" transform="translate(920 256.5) rotate(0 111 36.5)"><path d="M18.25 0 M18.25 0 C62.6 -2.62, 107.11 -0.93, 203.75 0 M18.25 0 C85.95 1.36, 153.66 1.02, 203.75 0 M203.75 0 C215.32 -1.2, 220.1 5.08, 222 18.25 M203.75 0 C217.7 -1, 220.67 7.18, 222 18.25 M222 18.25 C220.39 27.57, 220.98 41.16, 222 54.75 M222 18.25 C222.74 31.56, 221.98 45.43, 222 54.75 M222 54.75 C223.81 66.22, 217.42 74.14, 203.75 73 M222 54.75 C220.23 67.81, 218.15 73.52, 203.75 73 M203.75 73 C149.47 71.25, 94.72 73.05, 18.25 73 M203.75 73 C160.44 70.79, 116.93 71.15, 18.25 73 M18.25 73 C5.27 73.84, 0.33 68.5, 0 54.75 M18.25 73 C4.68 73, 2.16 65.68, 0 54.75 M0 54.75 C-0.41 40.33, -0.1 26.17, 0 18.25 M0 54.75 C-0.66 43.44, -0.35 31.92, 0 18.25 M0 18.25 C1.79 5.92, 5.24 1.6, 18.25 0 M0 18.25 C-2.22 6.38, 8.18 -0.68, 18.25 0" stroke="#000000" stroke-width="1" fill="none"></path></g><g stroke-linecap="round" transform="translate(1142 256.5) rotate(0 111 36.5)"><path d="M18.25 0 M18.25 0 C91.62 0.08, 166.17 -1.69, 203.75 0 M18.25 0 C82.39 0.37, 145.47 0.64, 203.75 0 M203.75 0 C215.41 -0.49, 221.19 6.93, 222 18.25 M203.75 0 C216.3 1.83, 220.6 6.08, 222 18.25 M222 18.25 C220.73 34.6, 221.2 45.91, 222 54.75 M222 18.25 C222.31 28.59, 221.23 39.27, 222 54.75 M222 54.75 C221.79 67.28, 217.71 72.84, 203.75 73 M222 54.75 C221.03 68.75, 213.7 73.3, 203.75 73 M203.75 73 C131.88 72.46, 59.65 74.58, 18.25 73 M203.75 73 C132 74.78, 61.34 73.33, 18.25 73 M18.25 73 C4.83 71.42, 0.13 68.4, 0 54.75 M18.25 73 C8.07 71.07, 2.23 66.97, 0 54.75 M0 54.75 C-1.44 40.62, 0.59 24.39, 0 18.25 M0 54.75 C0.36 43.77, 0.56 30.64, 0 18.25 M0 18.25 C-0.69 6.41, 6.7 -1.87, 18.25 0 M0 18.25 C-1.64 5.15, 7.98 -0.88, 18.25 0" stroke="#000000" stroke-width="1" fill="none"></path></g><g stroke-linecap="round" transform="translate(513 136) rotate(0 51 45)"><path d="M7.3 22.24 C7.3 22.24, 7.3 22.24, 7.3 22.24 M7.3 22.24 C7.3 22.24, 7.3 22.24, 7.3 22.24 M2.11 33.69 C10.6 25.52, 19.51 17.49, 27.57 7.34 M4.62 32.93 C10.09 25.81, 15.31 20.28, 26.13 5.64 M1.81 43.09 C9.2 32.08, 16.14 24.5, 32.2 3.94 M1.18 42.35 C8.42 33.22, 15.06 24.19, 33.73 3.55 M3.31 45.61 C13.35 30.15, 27.81 16.01, 38.71 2.73 M3.23 45.77 C16.49 31.4, 30.45 14.24, 39.34 2.56 M5.56 50.36 C12.4 38.68, 21.68 29.4, 45.07 2.34 M2.89 50.64 C19.18 34.35, 34.39 16.48, 45.82 2.27 M5.33 55.55 C18.34 37.53, 31.44 24.05, 53.22 -0.54 M4.34 55.86 C16.9 41.85, 29.14 28.31, 53.22 0.7 M6.41 58.71 C20.96 41.49, 37.2 23.74, 57.55 2.67 M6.49 59.55 C18.76 46.44, 30.46 32.95, 56.59 1.81 M6.61 63.01 C26.94 41.61, 45.22 19.04, 59.7 2.34 M7.33 64.97 C25.4 43.78, 43.19 23.15, 60.34 2.82 M10.13 67.17 C21.44 53.29, 33.84 39.96, 65.2 5.48 M9.85 67.94 C26.47 49.88, 43.29 29.17, 64.22 4.76 M13.95 73.04 C32.75 48.33, 48.58 29.3, 70.36 6.16 M11.75 72.05 C33.94 48.76, 53.01 24.58, 69.71 6.33 M15.57 76.3 C36.5 50.68, 57.16 23.16, 72.02 5.85 M14.74 74.86 C31.46 54.73, 49.68 34.22, 73.19 7.9 M17.3 79.26 C33.33 57.15, 50.65 40.55, 78.59 8.31 M18.17 78.3 C32.59 60.96, 46.04 44.84, 78.4 7.9 M19.4 80.52 C44.27 51.72, 68.51 25.81, 80.47 11.73 M19.64 79.88 C38.4 59.46, 55.48 41.64, 82.3 10.53 M25.04 83.6 C35.79 69.92, 47.36 52.36, 84.31 11.29 M23.41 82.87 C42.78 61.82, 60.66 40.2, 84.8 11.94 M26.05 85.28 C44.53 67.58, 59.75 45.24, 88.15 15.12 M27.59 86.25 C41.98 69.63, 54.84 52.46, 87.31 15.66 M30.62 85.78 C47.23 66.27, 62.3 48.98, 88.4 18.6 M31.23 86.38 C51.41 61.93, 72.71 37.06, 89.16 18.55 M33.69 88.84 C58.6 63.48, 77.44 37.32, 94.31 20.54 M36.21 86.7 C51.46 70, 67.4 50.78, 93.5 20.48 M39.29 88.87 C58.36 67.98, 75.41 46.66, 96.91 23.8 M39.01 88.42 C60.42 64.76, 83.26 38.52, 95.7 24.53 M45.64 88.05 C62.87 70.31, 82.63 45.43, 96.78 29.89 M43.17 89.19 C55.66 75.49, 68.74 61.04, 96.55 29.19 M48.09 91.23 C66 68.13, 85.19 47.53, 97.03 31.08 M49.77 89.56 C68.56 67, 86.98 46.11, 98.65 31.97 M54.31 93.31 C67.69 73.68, 85.99 56.14, 101.08 35.83 M52.01 91.9 C63.43 78.92, 76.08 65.1, 99.68 38.45 M59.12 89.04 C73.92 74, 86.05 59.07, 100.99 41.61 M59.46 91.82 C68.08 80.53, 77.7 69.75, 100.11 42.61 M66.47 91.03 C76.39 73.57, 90.18 61.03, 101.83 44.83 M65.5 89.67 C79.96 72.68, 94.05 56.55, 103.06 46.36 M73.58 86.02 C79.92 81.38, 85.44 69.58, 98.19 55.2 M72.92 88.43 C82.13 77.45, 90.98 67.14, 100.2 55.45 M79.47 89.28 C85.39 82.04, 90.48 71.97, 96.25 65.28 M77.84 87.66 C83.38 82.73, 87.91 75.48, 97.3 66.58" stroke="#ced4da" stroke-width="0.5" fill="none"></path><path d="M51.13 0.01 C59.41 -0.24, 70.84 3.42, 78.25 7.31 C85.66 11.19, 91.7 16.89, 95.59 23.32 C99.49 29.76, 101.72 38.49, 101.61 45.91 C101.51 53.33, 99.32 61.35, 94.96 67.84 C90.61 74.34, 82.94 81.22, 75.5 84.88 C68.06 88.55, 58.74 89.96, 50.31 89.83 C41.88 89.7, 32.31 87.97, 24.93 84.1 C17.55 80.24, 10.16 73.35, 6.05 66.61 C1.93 59.87, 0.04 51.06, 0.24 43.67 C0.44 36.29, 2.95 28.75, 7.25 22.3 C11.56 15.84, 17.89 8.56, 26.07 4.96 C34.26 1.36, 50.72 1.13, 56.35 0.71 C61.97 0.28, 59.74 1.74, 59.81 2.39 M72.61 5.64 C80.56 8.33, 89.99 13.84, 94.83 19.75 C99.66 25.67, 101.12 33.65, 101.59 41.14 C102.07 48.62, 101.49 57.72, 97.67 64.68 C93.85 71.65, 86.22 78.96, 78.68 82.95 C71.14 86.94, 60.67 88.17, 52.43 88.6 C44.18 89.03, 36.5 88.76, 29.22 85.52 C21.95 82.29, 13.66 75.41, 8.8 69.17 C3.93 62.93, 0.63 55.35, 0.06 48.08 C-0.51 40.82, 1.45 32.26, 5.37 25.59 C9.29 18.91, 16.47 12.13, 23.6 8.06 C30.73 3.99, 39.61 1.43, 48.18 1.15 C56.74 0.86, 70.9 5.45, 75.01 6.36 C79.12 7.27, 73.49 6.41, 72.84 6.61" stroke="#000000" stroke-width="1" fill="none"></path></g><g stroke-linecap="round" transform="translate(599 112) rotate(0 38 35)"><path d="M6.77 29.74 C6.77 29.74, 6.77 29.74, 6.77 29.74 M6.77 29.74 C6.77 29.74, 6.77 29.74, 6.77 29.74 M4.54 38.4 C8.1 33.77, 17.11 27.42, 30.13 8.96 M4.54 38.4 C13.72 28.5, 23.49 17.2, 30.13 8.96 M7.56 41.02 C20.18 25.4, 33.3 11.95, 41.02 2.53 M7.56 41.02 C15.85 32.21, 22.82 23.15, 41.02 2.53 M9.92 44.4 C20.46 30.28, 31.5 19.19, 44.04 5.16 M9.92 44.4 C20.36 31.97, 32.2 17.55, 44.04 5.16 M12.29 47.78 C23.9 37.9, 33.83 23.5, 47.06 7.78 M12.29 47.78 C22.65 35.48, 34.42 22.78, 47.06 7.78 M15.96 49.65 C24.83 38.57, 32.23 29.3, 50.08 10.4 M15.96 49.65 C28.22 35.37, 40.05 21.19, 50.08 10.4 M18.98 52.27 C28.21 43.39, 36.49 32.22, 53.09 13.03 M18.98 52.27 C26.6 42.9, 33.33 35.28, 53.09 13.03 M22 54.9 C30.64 46.26, 38.43 34.74, 56.11 15.65 M22 54.9 C34.37 40.43, 46.12 27.55, 56.11 15.65 M25.02 57.52 C34.89 47.03, 42.84 36.19, 58.48 19.03 M25.02 57.52 C36.92 43.23, 47.5 30.39, 58.48 19.03 M28.04 60.15 C34.27 50.14, 45.19 42.55, 61.49 21.66 M28.04 60.15 C37.17 48.54, 48.96 37.63, 61.49 21.66 M31.05 62.77 C36.54 54.3, 46.06 45.16, 64.51 24.28 M31.05 62.77 C39.73 52.96, 46.31 45.35, 64.51 24.28 M34.07 65.39 C45.56 52.86, 56.78 36.53, 66.88 27.66 M34.07 65.39 C42.07 56.59, 52.18 45.61, 66.88 27.66 M37.09 68.02 C48.3 52.15, 63.99 38.47, 69.89 30.28 M37.09 68.02 C42.89 60.82, 51.37 51.28, 69.89 30.28 M46.02 63.85 C55.7 51.94, 61.67 43.31, 72.91 32.91 M46.02 63.85 C55.84 52.24, 67.53 39.54, 72.91 32.91" stroke="#ced4da" stroke-width="0.5" fill="none"></path><path d="M48.75 9 M48.75 9 C54.88 13.03, 59.12 17.34, 66.25 27 M48.75 9 C55.02 15.8, 61.19 21.64, 66.25 27 M66.25 27 C74.53 34.51, 77.15 37.76, 66.25 45 M66.25 27 C75.26 35.59, 76.31 35.05, 66.25 45 M66.25 45 C61.6 48.42, 59.7 53.49, 48.75 61 M66.25 45 C63.02 47.83, 57.96 52.37, 48.75 61 M48.75 61 C40.33 71.64, 39.64 69.77, 29.25 61 M48.75 61 C40.38 69.61, 39.53 70.79, 29.25 61 M29.25 61 C24.07 53.93, 17.18 47.92, 9.75 45 M29.25 61 C21.47 54.7, 15.3 50.25, 9.75 45 M9.75 45 C-0.74 35.88, 1.57 37.09, 9.75 27 M9.75 45 C2.02 35.78, 1.66 35.87, 9.75 27 M9.75 27 C16.08 20.73, 25.23 16.14, 29.25 9 M9.75 27 C16.11 19.98, 23.95 13.23, 29.25 9 M29.25 9 C40 -1.85, 39.12 0.33, 48.75 9 M29.25 9 C40.49 2.03, 39.26 -1.26, 48.75 9" stroke="#000000" stroke-width="1" fill="none"></path></g><g transform="translate(623.2200002670288 135) rotate(0 13.779999732971191 12)"><text x="13.779999732971191" y="0" font-family="Virgil, Segoe UI Emoji" font-size="20px" fill="#000000" text-anchor="middle" style="white-space: pre;" direction="ltr" dominant-baseline="text-before-edge">TF</text></g><g stroke-linecap="round" transform="translate(668 115) rotate(0 43 34)"><path d="M56.9 6.79 L81.8 32.13 L83.45 36.52 L78.16 41.23 L49.34 63.96 L42.61 63.91 L39.83 62.82 L2.74 35.55 L5.28 30.85 L38.91 5.04 L46.98 1.34 L54.13 9.79" stroke="none" stroke-width="0" fill="#4c6ef5"></path><path d="M55 8.75 M55 8.75 C59.42 13.24, 65.58 16.14, 75 26.25 M55 8.75 C60.39 13.32, 66.07 19.77, 75 26.25 M75 26.25 C87.37 35.16, 85.35 34.92, 75 43.75 M75 26.25 C87.27 35.81, 84.55 33.02, 75 43.75 M75 43.75 C69.19 49.28, 63.97 52.92, 55 59.25 M75 43.75 C69.53 47.62, 64.63 50.26, 55 59.25 M55 59.25 C42.88 69.3, 44.25 69.76, 33 59.25 M55 59.25 C45.61 67.18, 41.98 68.59, 33 59.25 M33 59.25 C26.07 53.77, 17.53 48.86, 11 43.75 M33 59.25 C27.71 56.28, 22.79 51.25, 11 43.75 M11 43.75 C0.85 35.73, 0.05 36.72, 11 26.25 M11 43.75 C-1.78 34.94, 1.96 36.18, 11 26.25 M11 26.25 C15.71 20.71, 22.2 17.09, 33 8.75 M11 26.25 C16.1 22.52, 23.75 17.24, 33 8.75 M33 8.75 C44.67 -0.11, 45.11 1.45, 55 8.75 M33 8.75 C44.31 2.2, 43.24 2.3, 55 8.75" stroke="#000000" stroke-width="1" fill="none"></path></g><g transform="translate(694.9300003051758 137) rotate(0 16.06999969482422 12)"><text x="16.06999969482422" y="0" font-family="Virgil, Segoe UI Emoji" font-size="20px" fill="#fff" text-anchor="middle" style="white-space: pre;" direction="ltr" dominant-baseline="text-before-edge">VII</text></g><g stroke-linecap="round" transform="translate(910 57) rotate(0 43 34)"><path d="M55.84 10.45 L81.08 29.69 L84.89 35.57 L78.78 40.31 L48.13 64.69 L43.49 66.89 L38.92 63.23 L3.82 38.55 L3.58 30.72 L41.06 4.07 L47.27 4.42 L54.98 6.83" stroke="none" stroke-width="0" fill="#e64980"></path><path d="M55 8.75 M55 8.75 C61.36 13, 66.12 18.94, 75 26.25 M55 8.75 C62.75 16.03, 69.93 21.64, 75 26.25 M75 26.25 C86.72 34.58, 86.83 36.48, 75 43.75 M75 26.25 C84.53 35.55, 86.62 33.93, 75 43.75 M75 43.75 C68.3 50.21, 61.84 52.17, 55 59.25 M75 43.75 C70.71 48.79, 64.86 52.62, 55 59.25 M55 59.25 C43.63 66.83, 45.23 67.75, 33 59.25 M55 59.25 C44.69 68.66, 43.88 65.83, 33 59.25 M33 59.25 C26.28 52.9, 18.39 49.6, 11 43.75 M33 59.25 C26.06 54.41, 18.51 49.26, 11 43.75 M11 43.75 C1.05 35.82, 1.44 34.46, 11 26.25 M11 43.75 C0.13 34.7, -0.77 33.48, 11 26.25 M11 26.25 C18.39 20.67, 27.32 11.28, 33 8.75 M11 26.25 C17.28 21.01, 21.87 17.15, 33 8.75 M33 8.75 C43.41 -1.64, 44.25 0.91, 55 8.75 M33 8.75 C46.01 -1.85, 42.16 2.19, 55 8.75" stroke="#000000" stroke-width="1" fill="none"></path></g><g transform="translate(940.3500003814697 79) rotate(0 12.649999618530273 12)"><text x="12.649999618530273" y="0" font-family="Virgil, Segoe UI Emoji" font-size="20px" fill="#fff" text-anchor="middle" style="white-space: pre;" direction="ltr" dominant-baseline="text-before-edge">Xa</text></g><g stroke-linecap="round" transform="translate(818 53) rotate(0 40 35)"><path d="M50.52 8.11 L74.24 33.23 L77.16 34.54 L70.62 45.03 L46.33 62.45 L40.69 68.97 L36.45 64.48 L8.72 45.18 L1.23 37.3 L8.85 28.16 L37.62 4.35 L43.31 0.71 L53.02 10.68" stroke="none" stroke-width="0" fill="#e64980"></path><path d="M51.25 9 M51.25 9 C56.95 17.39, 63.18 22.95, 69.75 27 M51.25 9 C55.01 12.32, 60.59 17.45, 69.75 27 M69.75 27 C79.54 36.95, 80.58 38, 69.75 45 M69.75 27 C79.3 35.43, 78.4 36.13, 69.75 45 M69.75 45 C62.99 49.69, 57.79 55.81, 51.25 61 M69.75 45 C63.71 49.11, 58.01 55.59, 51.25 61 M51.25 61 C39.77 70.4, 40.25 71.78, 30.75 61 M51.25 61 C41 68.63, 40.89 70.22, 30.75 61 M30.75 61 C27.79 56.44, 21.84 54.86, 10.25 45 M30.75 61 C25.95 56.61, 22.66 54.99, 10.25 45 M10.25 45 C0.47 36.86, -1.11 35.75, 10.25 27 M10.25 45 C-0.79 37.89, 1.16 35.09, 10.25 27 M10.25 27 C15.41 20.83, 22.4 14.61, 30.75 9 M10.25 27 C14.51 23.41, 19.61 17.9, 30.75 9 M30.75 9 C40.15 -1.03, 41.56 1.75, 51.25 9 M30.75 9 C39.11 -0.32, 41.3 -0.72, 51.25 9" stroke="#000000" stroke-width="1" fill="none"></path></g><g transform="translate(843.5200004577637 78.39999999999998) rotate(0 14.479999542236328 9.599999999999994)"><text x="14.479999542236328" y="0" font-family="Virgil, Segoe UI Emoji" font-size="16px" fill="#fff" text-anchor="middle" style="white-space: pre;" direction="ltr" dominant-baseline="text-before-edge">IXa</text></g><g stroke-linecap="round" transform="translate(602 379) rotate(0 43 34)"><path d="M57 10.42 L80.11 33.06 L82.41 34.48 L76.79 41.73 L49.52 62.98 L43.55 64.25 L40.83 62.23 L2.14 38.62 L3.76 32.64 L38.95 2.48 L44.62 4.34 L54.91 8.11" stroke="none" stroke-width="0" fill="#4c6ef5"></path><path d="M55 8.75 M55 8.75 C61.24 16.31, 71.64 23.46, 75 26.25 M55 8.75 C62.58 15.24, 70.53 22.15, 75 26.25 M75 26.25 C85.79 34, 84.72 35.21, 75 43.75 M75 26.25 C87.1 33.24, 86.63 35.76, 75 43.75 M75 43.75 C71.53 46.51, 66.16 51.76, 55 59.25 M75 43.75 C70.62 47.04, 64.32 51.64, 55 59.25 M55 59.25 C43.02 68.63, 43.8 66.66, 33 59.25 M55 59.25 C43.05 68, 45.97 67.23, 33 59.25 M33 59.25 C26.64 53.69, 22.54 49.85, 11 43.75 M33 59.25 C25.96 53.61, 18.04 49.01, 11 43.75 M11 43.75 C-1.39 33.21, 0.31 35.24, 11 26.25 M11 43.75 C-0.09 34.17, 0.69 34.64, 11 26.25 M11 26.25 C17.97 18.84, 25.31 12.22, 33 8.75 M11 26.25 C20.26 19.85, 28 13.81, 33 8.75 M33 8.75 C44.91 1.36, 45.46 -0.43, 55 8.75 M33 8.75 C44.68 0.6, 44.22 0.22, 55 8.75" stroke="#000000" stroke-width="1" fill="none"></path></g><g transform="translate(633.5699996948242 401) rotate(0 11.430000305175781 12)"><text x="11.430000305175781" y="0" font-family="Virgil, Segoe UI Emoji" font-size="20px" fill="#fff" text-anchor="middle" style="white-space: pre;" direction="ltr" dominant-baseline="text-before-edge">IX</text></g><g stroke-linecap="round" transform="translate(714 380) rotate(0 43 34)"><path d="M55.35 10.23 L81.5 31.57 L81.75 33.25 L77.75 39.46 L46.67 64.48 L44.24 65.74 L38.81 64.77 L2.95 37.89 L5.89 32.92 L38.66 2.9 L44.63 1.35 L56.78 10.27" stroke="none" stroke-width="0" fill="#4c6ef5"></path><path d="M55 8.75 M55 8.75 C59.29 14.27, 64.32 17.31, 75 26.25 M55 8.75 C62.68 15.31, 69.97 20.87, 75 26.25 M75 26.25 C85.36 36.99, 86.55 35.92, 75 43.75 M75 26.25 C87.02 35.07, 87.1 36.15, 75 43.75 M75 43.75 C67.6 49.77, 58.59 56.72, 55 59.25 M75 43.75 C70.07 46.87, 66.84 50.22, 55 59.25 M55 59.25 C45.76 66.43, 44.12 69.56, 33 59.25 M55 59.25 C43.56 66.13, 44.91 67.1, 33 59.25 M33 59.25 C30.28 54.76, 23.15 53.39, 11 43.75 M33 59.25 C28.19 56.07, 23.48 52.57, 11 43.75 M11 43.75 C-1.46 35.25, 1.33 33.38, 11 26.25 M11 43.75 C0.08 35.51, 1.29 36.86, 11 26.25 M11 26.25 C15.49 23.52, 20.37 18.64, 33 8.75 M11 26.25 C16.77 22.14, 22.58 16.12, 33 8.75 M33 8.75 C43.88 0.04, 42.47 -0.92, 55 8.75 M33 8.75 C45.46 -1.85, 42.07 -2.11, 55 8.75" stroke="#000000" stroke-width="1" fill="none"></path></g><g transform="translate(751.0199999809265 402) rotate(0 5.980000019073486 12)"><text x="5.980000019073486" y="0" font-family="Virgil, Segoe UI Emoji" font-size="20px" fill="#fff" text-anchor="middle" style="white-space: pre;" direction="ltr" dominant-baseline="text-before-edge">X</text></g><g stroke-linecap="round"><g transform="translate(653.5814018925414 377.62250382200955) rotate(0 96.37023257891309 -125.92435151626307)"><path d="M-0.03 1 C32.46 -41.22, 161.89 -210.74, 194.25 -252.85 M-1.51 0.47 C30.86 -41.66, 160.71 -210.03, 193.15 -251.81" stroke="#000" stroke-width="1" fill="none"></path></g><g transform="translate(653.5814018925414 377.62250382200955) rotate(0 96.37023257891309 -125.92435151626307)"><path d="M185.68 -223.71 C184.52 -230.75, 188.75 -236.42, 191.93 -251.11 M184.72 -223.15 C187.19 -230.06, 187.78 -237.88, 193.3 -252.68" stroke="#000" stroke-width="1" fill="none"></path></g><g transform="translate(653.5814018925414 377.62250382200955) rotate(0 96.37023257891309 -125.92435151626307)"><path d="M169.45 -236.26 C172.24 -240.28, 180.36 -242.94, 191.93 -251.11 M168.49 -235.7 C174.88 -239.67, 179.45 -244.41, 193.3 -252.68" stroke="#000" stroke-width="1" fill="none"></path></g></g><mask></mask><g stroke-linecap="round"><g transform="translate(765.6296369415425 375.32312817113507) rotate(0 91.5060496729269 -123.92617611025105)"><path d="M-0.36 -1.03 C30.31 -42.54, 152.85 -207.52, 183.37 -248.89 M1.65 1.04 C32.18 -40.28, 151.6 -205.86, 182.18 -247.39" stroke="#000" stroke-width="1" fill="none"></path></g><g transform="translate(765.6296369415425 375.32312817113507) rotate(0 91.5060496729269 -123.92617611025105)"><path d="M172.16 -219.33 C175.77 -227.32, 177.21 -232.81, 181.53 -247.86 M173.58 -218.44 C177.11 -228.77, 179.37 -237.62, 181.73 -248.3" stroke="#000" stroke-width="1" fill="none"></path></g><g transform="translate(765.6296369415425 375.32312817113507) rotate(0 91.5060496729269 -123.92617611025105)"><path d="M155.57 -231.4 C163.24 -236.4, 168.72 -238.95, 181.53 -247.86 M156.99 -230.51 C165.89 -236.73, 173.62 -241.6, 181.73 -248.3" stroke="#000" stroke-width="1" fill="none"></path></g></g><mask></mask><g transform="translate(218.91001892089844 10) rotate(0 196.08998107910156 24)"><text x="196.08998107910156" y="0" font-family="Virgil, Segoe UI Emoji" font-size="20px" fill="#000" text-anchor="middle" style="white-space: pre;" direction="ltr" dominant-baseline="text-before-edge">Komplex TF/FVII, tzn. extrinsn tenza,</text><text x="196.08998107910156" y="24" font-family="Virgil, Segoe UI Emoji" font-size="20px" fill="#000" text-anchor="middle" style="white-space: pre;" direction="ltr" dominant-baseline="text-before-edge">aktivuje faktory IX a X.</text></g><g stroke-linecap="round" transform="translate(609 24.5) rotate(0 67 57.5)"><path d="M85.7 13.02 L127.29 50.66 L131.26 59.6 L129.25 62.27 L122.65 67.81 L83.89 100.63 L74.16 110.17 L69.52 109.61 L62.33 107.54 L15.54 71.76 L6.96 62.92 L5.85 56.34 L3.95 53.67 L11.07 46.64 L64.25 3.62 L70.23 6.03 L85.77 15.99" stroke="none" stroke-width="0" fill="#82c91e"></path><path d="M85 14.5 M85 14.5 C91.63 22.91, 100.69 28.84, 117 43.5 M85 14.5 C97.4 25.39, 109.68 37.09, 117 43.5 M117 43.5 C134.98 57.66, 132.32 58.35, 117 72.5 M117 43.5 C135.1 59.63, 132.41 57.65, 117 72.5 M117 72.5 C107.04 80.64, 98.92 90.57, 85 100.5 M117 72.5 C108.23 79.45, 99.74 87.75, 85 100.5 M85 100.5 C69.71 113.83, 69.13 115.09, 51 100.5 M85 100.5 C68.8 115.93, 67.48 113.11, 51 100.5 M51 100.5 C43.02 92.59, 34.29 86.71, 17 72.5 M51 100.5 C44.11 94.99, 34.68 87.89, 17 72.5 M17 72.5 C0.94 56.97, -1.41 56.54, 17 43.5 M17 72.5 C-1.67 58.76, -0.33 56.71, 17 43.5 M17 43.5 C29.19 30.3, 46.06 21.69, 51 14.5 M17 43.5 C24.54 36.51, 30.14 30.53, 51 14.5 M51 14.5 C69.79 -2, 68.76 1.13, 85 14.5 M51 14.5 C69.86 2.07, 69.64 1.51, 85 14.5" stroke="#000000" stroke-width="1" fill="none"></path></g><g transform="translate(649.5200004577637 70.25) rotate(0 26.479999542236328 12)"><text x="26.479999542236328" y="0" font-family="Virgil, Segoe UI Emoji" font-size="20px" fill="#fff" text-anchor="middle" style="white-space: pre;" direction="ltr" dominant-baseline="text-before-edge">Ca2+</text></g></svg>